<svg width="375" height="812" viewBox="0 0 375 812" fill="none" xmlns="http://www.w3.org/2000/svg">
<g clip-path="url(#clip0_76_157)">
<path d="M0 30C0 13.4315 13.4315 0 30 0H345C361.569 0 375 13.4315 375 30V782C375 798.569 361.569 812 345 812H30C13.4315 812 0 798.569 0 782V30Z" fill="white"/>
<path d="M8 120C8 117.791 9.79086 116 12 116H364C366.209 116 368 117.791 368 120V152C368 154.209 366.209 156 364 156H12C9.79087 156 8 154.209 8 152V120Z" fill="#F5F5F5" fill-opacity="0.8"/>
<path fill-rule="evenodd" clip-rule="evenodd" d="M19.47 136.53C19.3295 136.389 19.2506 136.199 19.2506 136C19.2506 135.801 19.3295 135.611 19.47 135.47L25.47 129.47C25.5386 129.396 25.6214 129.337 25.7134 129.296C25.8054 129.255 25.9047 129.233 26.0054 129.231C26.1061 129.23 26.2062 129.248 26.2995 129.286C26.3929 129.324 26.4778 129.38 26.549 129.451C26.6202 129.522 26.6764 129.607 26.7141 129.7C26.7518 129.794 26.7703 129.894 26.7685 129.995C26.7668 130.095 26.7447 130.195 26.7037 130.287C26.6627 130.379 26.6036 130.461 26.5299 130.53L21.81 135.25L36 135.25C36.1989 135.25 36.3896 135.329 36.5303 135.47C36.6709 135.61 36.75 135.801 36.75 136C36.75 136.199 36.6709 136.39 36.5303 136.53C36.3896 136.671 36.1989 136.75 36 136.75L21.81 136.75L26.53 141.47C26.6036 141.539 26.6627 141.621 26.7037 141.713C26.7447 141.805 26.7668 141.905 26.7685 142.005C26.7703 142.106 26.7518 142.206 26.7141 142.3C26.6764 142.393 26.6202 142.478 26.549 142.549C26.4778 142.62 26.3929 142.676 26.2995 142.714C26.2062 142.752 26.1061 142.77 26.0054 142.769C25.9047 142.767 25.8054 142.745 25.7134 142.704C25.6214 142.663 25.5386 142.604 25.47 142.53L19.47 136.53Z" fill="#1E1E1E"/>
<path d="M214.507 148.288C214.326 147.584 214.166 146.896 214.027 146.224C213.899 145.552 213.803 144.933 213.739 144.368C213.675 143.803 213.643 143.339 213.643 142.976C213.643 142.325 213.761 141.787 213.995 141.36C214.23 140.923 214.545 140.587 214.939 140.352C215.334 140.107 215.771 139.941 216.251 139.856C216.742 139.771 217.243 139.744 217.755 139.776C218.278 139.797 218.769 139.861 219.227 139.968C219.259 139.605 219.238 139.259 219.163 138.928C219.099 138.587 218.987 138.288 218.827 138.032C218.678 137.765 218.486 137.557 218.251 137.408C218.017 137.259 217.75 137.184 217.451 137.184C217.185 137.184 216.934 137.243 216.699 137.36C216.465 137.477 216.241 137.659 216.027 137.904C215.825 138.139 215.627 138.432 215.435 138.784L214.443 138.24C214.721 137.664 215.025 137.205 215.355 136.864C215.697 136.523 216.054 136.277 216.427 136.128C216.801 135.968 217.169 135.888 217.531 135.888C218.075 135.888 218.534 136.005 218.907 136.24C219.281 136.464 219.574 136.763 219.787 137.136C220.011 137.499 220.171 137.893 220.267 138.32C220.374 138.736 220.427 139.136 220.427 139.52C220.427 139.787 220.395 140.053 220.331 140.32C220.267 140.587 220.187 140.827 220.091 141.04C220.006 141.253 219.921 141.419 219.835 141.536C219.259 141.365 218.721 141.243 218.219 141.168C217.718 141.093 217.265 141.072 216.859 141.104C216.465 141.125 216.123 141.211 215.835 141.36C215.547 141.509 215.329 141.723 215.179 142C215.03 142.277 214.955 142.629 214.955 143.056C214.955 143.451 214.987 143.92 215.051 144.464C215.115 145.008 215.206 145.579 215.323 146.176C215.441 146.784 215.579 147.381 215.739 147.968L214.507 148.288ZM221.701 145.68L221.413 144.368C222.053 144.283 222.64 144.16 223.173 144C223.717 143.851 224.181 143.632 224.565 143.344C224.96 143.056 225.264 142.677 225.477 142.208C225.691 141.739 225.797 141.152 225.797 140.448C225.797 139.723 225.664 139.12 225.397 138.64C225.131 138.16 224.784 137.92 224.357 137.92C224.133 137.92 223.925 138.005 223.733 138.176C223.541 138.347 223.381 138.576 223.253 138.864C223.136 139.152 223.077 139.467 223.077 139.808C223.077 140 223.12 140.16 223.205 140.288C223.291 140.405 223.413 140.501 223.573 140.576C223.744 140.64 223.957 140.688 224.213 140.72C224.469 140.752 224.768 140.768 225.109 140.768H228.485C228.709 140.768 228.869 140.832 228.965 140.96C229.072 141.077 229.125 141.221 229.125 141.392C229.125 141.563 229.051 141.723 228.901 141.872C228.752 142.011 228.56 142.08 228.325 142.08H224.501C224.021 142.08 223.573 142.011 223.157 141.872C222.752 141.733 222.421 141.52 222.165 141.232C221.92 140.933 221.797 140.544 221.797 140.064C221.797 139.616 221.867 139.189 222.005 138.784C222.144 138.368 222.331 138 222.565 137.68C222.811 137.349 223.093 137.088 223.413 136.896C223.744 136.704 224.101 136.608 224.485 136.608C224.976 136.608 225.413 136.752 225.797 137.04C226.181 137.328 226.485 137.765 226.709 138.352C226.933 138.928 227.045 139.659 227.045 140.544C227.045 141.536 226.843 142.389 226.437 143.104C226.043 143.829 225.445 144.405 224.645 144.832C223.856 145.259 222.875 145.541 221.701 145.68ZM228.02 142.08L228.18 140.768C228.628 140.768 228.98 140.731 229.236 140.656C229.492 140.571 229.684 140.416 229.812 140.192C229.951 139.957 230.068 139.621 230.164 139.184C230.26 138.747 230.378 138.176 230.516 137.472L231.764 137.712C231.722 137.904 231.674 138.117 231.62 138.352C231.567 138.587 231.519 138.821 231.476 139.056C231.444 139.28 231.428 139.477 231.428 139.648C231.428 139.861 231.476 140.053 231.572 140.224C231.668 140.395 231.876 140.528 232.196 140.624C232.516 140.72 233.007 140.768 233.668 140.768C233.892 140.768 234.052 140.832 234.148 140.96C234.255 141.077 234.308 141.221 234.308 141.392C234.308 141.563 234.234 141.723 234.084 141.872C233.935 142.011 233.743 142.08 233.508 142.08C232.815 142.08 232.271 142.021 231.876 141.904C231.482 141.776 231.194 141.589 231.012 141.344C230.831 141.088 230.708 140.779 230.644 140.416L231.124 140.448C230.954 140.789 230.767 141.067 230.564 141.28C230.372 141.493 230.159 141.659 229.924 141.776C229.69 141.893 229.418 141.973 229.108 142.016C228.799 142.059 228.436 142.08 228.02 142.08ZM230.516 135.824C230.292 135.824 230.1 135.749 229.94 135.6C229.791 135.44 229.716 135.253 229.716 135.04C229.716 134.827 229.791 134.64 229.94 134.48C230.1 134.32 230.292 134.24 230.516 134.24C230.73 134.24 230.911 134.32 231.06 134.48C231.22 134.64 231.3 134.827 231.3 135.04C231.3 135.253 231.22 135.44 231.06 135.6C230.911 135.749 230.73 135.824 230.516 135.824ZM233.205 142.08L233.349 140.768C233.957 140.768 234.383 140.709 234.629 140.592C234.874 140.475 235.013 140.267 235.045 139.968C235.087 139.669 235.098 139.253 235.077 138.72L234.773 130.576H236.069L236.389 138.576C236.41 139.141 236.389 139.643 236.325 140.08C236.271 140.517 236.133 140.885 235.909 141.184C235.695 141.483 235.37 141.707 234.933 141.856C234.506 142.005 233.93 142.08 233.205 142.08ZM238.533 142L238.213 130.576H239.509L239.829 142H238.533ZM245.019 142.016C245.019 141.632 245.072 141.205 245.179 140.736C245.286 140.267 245.456 139.749 245.691 139.184L246.843 139.632C246.672 140.08 246.544 140.491 246.459 140.864C246.374 141.237 246.331 141.584 246.331 141.904C246.331 142.491 246.475 142.965 246.763 143.328C247.062 143.701 247.456 143.973 247.947 144.144C248.448 144.315 248.998 144.4 249.595 144.4C250.32 144.4 250.928 144.32 251.419 144.16C251.91 144.011 252.299 143.803 252.587 143.536C252.875 143.269 253.078 142.965 253.195 142.624C253.323 142.293 253.387 141.947 253.387 141.584C253.387 141.115 253.35 140.672 253.275 140.256C253.211 139.84 253.12 139.435 253.003 139.04C252.896 138.635 252.779 138.224 252.651 137.808L253.947 137.456C254.064 137.861 254.155 138.192 254.219 138.448C254.283 138.693 254.331 138.891 254.363 139.04C254.406 139.189 254.443 139.323 254.475 139.44C254.592 139.835 254.747 140.128 254.939 140.32C255.131 140.501 255.35 140.624 255.595 140.688C255.851 140.741 256.112 140.768 256.379 140.768C256.603 140.768 256.763 140.832 256.859 140.96C256.966 141.077 257.019 141.221 257.019 141.392C257.019 141.563 256.944 141.723 256.795 141.872C256.646 142.011 256.454 142.08 256.219 142.08C255.771 142.08 255.398 142.005 255.099 141.856C254.8 141.696 254.566 141.499 254.395 141.264C254.235 141.029 254.128 140.784 254.075 140.528L254.731 141.344C254.699 141.888 254.592 142.416 254.411 142.928C254.24 143.451 253.963 143.92 253.579 144.336C253.195 144.763 252.672 145.099 252.011 145.344C251.36 145.589 250.539 145.712 249.547 145.712C248.939 145.712 248.363 145.637 247.819 145.488C247.275 145.339 246.79 145.109 246.363 144.8C245.947 144.501 245.616 144.117 245.371 143.648C245.136 143.189 245.019 142.645 245.019 142.016ZM249.851 135.632C249.627 135.632 249.435 135.557 249.275 135.408C249.126 135.248 249.051 135.061 249.051 134.848C249.051 134.635 249.126 134.448 249.275 134.288C249.435 134.128 249.627 134.048 249.851 134.048C250.064 134.048 250.246 134.128 250.395 134.288C250.555 134.448 250.635 134.635 250.635 134.848C250.635 135.061 250.555 135.248 250.395 135.408C250.246 135.557 250.064 135.632 249.851 135.632ZM255.927 142.08L256.087 140.768C256.385 140.768 256.636 140.704 256.839 140.576C257.041 140.448 257.239 140.235 257.431 139.936C257.623 139.637 257.831 139.237 258.055 138.736C258.364 138.053 258.668 137.536 258.967 137.184C259.276 136.832 259.58 136.592 259.879 136.464C260.188 136.336 260.492 136.272 260.791 136.272C261.153 136.272 261.489 136.368 261.799 136.56C262.108 136.741 262.38 136.987 262.615 137.296C262.849 137.605 263.031 137.947 263.159 138.32C263.297 138.683 263.367 139.045 263.367 139.408C263.367 140.048 263.255 140.56 263.031 140.944C262.807 141.317 262.519 141.589 262.167 141.76C261.825 141.92 261.468 142 261.095 142C260.764 142 260.337 141.936 259.815 141.808C259.303 141.68 258.652 141.355 257.863 140.832L258.487 139.824C259.009 140.155 259.479 140.384 259.895 140.512C260.321 140.629 260.673 140.688 260.951 140.688C261.26 140.688 261.505 140.645 261.687 140.56C261.868 140.464 262.001 140.331 262.087 140.16C262.172 139.989 262.215 139.797 262.215 139.584C262.215 139.275 262.14 138.965 261.991 138.656C261.841 138.347 261.649 138.091 261.415 137.888C261.191 137.685 260.951 137.584 260.695 137.584C260.503 137.584 260.316 137.637 260.135 137.744C259.953 137.851 259.767 138.048 259.575 138.336C259.383 138.624 259.164 139.04 258.919 139.584C258.663 140.16 258.417 140.619 258.183 140.96C257.959 141.291 257.729 141.536 257.495 141.696C257.26 141.856 257.015 141.957 256.759 142C256.513 142.053 256.236 142.08 255.927 142.08ZM273.902 142.208C273.23 142.208 272.606 142.197 272.03 142.176C271.465 142.155 270.948 142.128 270.478 142.096C270.009 142.075 269.593 142.043 269.23 142C268.868 141.968 268.564 141.936 268.318 141.904L268.462 140.656C268.772 140.699 269.124 140.736 269.518 140.768C269.924 140.8 270.366 140.827 270.846 140.848C271.337 140.859 271.86 140.869 272.414 140.88C272.969 140.891 273.561 140.896 274.19 140.896C274.894 140.896 275.524 140.853 276.078 140.768C276.633 140.683 277.097 140.555 277.47 140.384C277.854 140.203 278.148 139.984 278.35 139.728C278.553 139.472 278.654 139.179 278.654 138.848C278.654 138.613 278.596 138.384 278.478 138.16C278.361 137.925 278.18 137.728 277.934 137.568C277.689 137.408 277.364 137.328 276.958 137.328C276.446 137.328 275.934 137.461 275.422 137.728C274.921 137.995 274.441 138.331 273.982 138.736C273.534 139.131 273.134 139.536 272.782 139.952C272.43 140.368 272.148 140.731 271.934 141.04L270.542 140.992C270.884 140.437 271.289 139.872 271.758 139.296C272.238 138.709 272.761 138.171 273.326 137.68C273.902 137.179 274.505 136.779 275.134 136.48C275.764 136.171 276.404 136.016 277.054 136.016C277.641 136.016 278.142 136.139 278.558 136.384C278.985 136.619 279.31 136.939 279.534 137.344C279.769 137.749 279.886 138.208 279.886 138.72C279.886 139.349 279.7 139.931 279.326 140.464C278.964 140.987 278.345 141.408 277.47 141.728C276.596 142.048 275.406 142.208 273.902 142.208ZM271.406 140.416L271.086 130.576H272.382L272.702 139.296L271.406 140.416ZM276.27 134.368C276.046 134.368 275.854 134.293 275.694 134.144C275.545 133.984 275.47 133.797 275.47 133.584C275.47 133.371 275.545 133.184 275.694 133.024C275.854 132.864 276.046 132.784 276.27 132.784C276.484 132.784 276.665 132.864 276.814 133.024C276.974 133.184 277.054 133.371 277.054 133.584C277.054 133.797 276.974 133.984 276.814 134.144C276.665 134.293 276.484 134.368 276.27 134.368ZM284.964 142.08C284.11 142.08 283.454 141.984 282.996 141.792C282.548 141.6 282.238 141.301 282.068 140.896C281.897 140.491 281.801 139.968 281.78 139.328L281.46 130.576H282.772L283.092 138.816C283.113 139.339 283.161 139.744 283.236 140.032C283.321 140.309 283.502 140.501 283.78 140.608C284.068 140.715 284.516 140.768 285.124 140.768C285.348 140.768 285.508 140.832 285.604 140.96C285.71 141.077 285.764 141.221 285.764 141.392C285.764 141.563 285.689 141.723 285.54 141.872C285.39 142.011 285.198 142.08 284.964 142.08ZM284.664 142.08L284.824 140.768C285.091 140.768 285.363 140.768 285.64 140.768C285.928 140.757 286.211 140.741 286.488 140.72C286.765 140.699 287.032 140.672 287.288 140.64C287.544 140.608 287.773 140.56 287.976 140.496C288.349 140.379 288.691 140.224 289 140.032C289.32 139.84 289.576 139.605 289.768 139.328C289.971 139.051 290.072 138.731 290.072 138.368C290.072 138.123 290.013 137.872 289.896 137.616C289.779 137.349 289.619 137.125 289.416 136.944C289.213 136.763 288.979 136.672 288.712 136.672C288.456 136.672 288.216 136.757 287.992 136.928C287.779 137.099 287.603 137.323 287.464 137.6C287.336 137.867 287.272 138.144 287.272 138.432C287.272 138.773 287.357 139.083 287.528 139.36C287.709 139.627 287.928 139.856 288.184 140.048C288.44 140.24 288.696 140.395 288.952 140.512L287.432 140.96C287.261 140.832 287.059 140.656 286.824 140.432C286.6 140.197 286.397 139.909 286.216 139.568C286.045 139.227 285.96 138.837 285.96 138.4C285.96 137.973 286.035 137.579 286.184 137.216C286.344 136.843 286.552 136.517 286.808 136.24C287.075 135.963 287.373 135.749 287.704 135.6C288.045 135.44 288.397 135.36 288.76 135.36C289.283 135.36 289.741 135.504 290.136 135.792C290.531 136.08 290.835 136.448 291.048 136.896C291.272 137.333 291.384 137.792 291.384 138.272C291.384 138.731 291.299 139.147 291.128 139.52C290.957 139.883 290.723 140.208 290.424 140.496C290.136 140.784 289.795 141.029 289.4 141.232C289.016 141.435 288.605 141.6 288.168 141.728C287.923 141.803 287.656 141.861 287.368 141.904C287.091 141.947 286.797 141.979 286.488 142C286.179 142.032 285.869 142.053 285.56 142.064C285.251 142.075 284.952 142.08 284.664 142.08ZM292.584 142.08C292.051 142.08 291.496 142.048 290.92 141.984C290.355 141.909 289.816 141.819 289.304 141.712C288.803 141.595 288.387 141.467 288.056 141.328L289.16 140.528C289.48 140.571 289.859 140.613 290.296 140.656C290.733 140.688 291.171 140.715 291.608 140.736C292.045 140.757 292.424 140.768 292.744 140.768C292.968 140.768 293.128 140.832 293.224 140.96C293.331 141.077 293.384 141.221 293.384 141.392C293.384 141.563 293.309 141.723 293.16 141.872C293.011 142.011 292.819 142.08 292.584 142.08ZM289.736 133.712C289.512 133.712 289.32 133.637 289.16 133.488C289.011 133.328 288.936 133.141 288.936 132.928C288.936 132.715 289.011 132.528 289.16 132.368C289.32 132.208 289.512 132.128 289.736 132.128C289.949 132.128 290.131 132.208 290.28 132.368C290.44 132.528 290.52 132.715 290.52 132.928C290.52 133.141 290.44 133.328 290.28 133.488C290.131 133.637 289.949 133.712 289.736 133.712ZM287.544 133.712C287.32 133.712 287.128 133.637 286.968 133.488C286.819 133.328 286.744 133.141 286.744 132.928C286.744 132.715 286.819 132.528 286.968 132.368C287.128 132.208 287.32 132.128 287.544 132.128C287.757 132.128 287.939 132.208 288.088 132.368C288.248 132.528 288.328 132.715 288.328 132.928C288.328 133.141 288.248 133.328 288.088 133.488C287.939 133.637 287.757 133.712 287.544 133.712ZM292.286 142.08L292.446 140.768C292.979 140.768 293.395 140.731 293.694 140.656C293.993 140.571 294.217 140.416 294.366 140.192C294.526 139.957 294.654 139.621 294.75 139.184C294.846 138.747 294.963 138.176 295.102 137.472L296.35 137.712C296.307 137.904 296.259 138.117 296.206 138.352C296.153 138.587 296.105 138.821 296.062 139.056C296.03 139.28 296.014 139.477 296.014 139.648C296.014 139.808 296.025 139.957 296.046 140.096C296.067 140.235 296.147 140.352 296.286 140.448C296.425 140.544 296.659 140.624 296.99 140.688C297.321 140.741 297.795 140.768 298.414 140.768C298.638 140.768 298.798 140.832 298.894 140.96C299.001 141.077 299.054 141.221 299.054 141.392C299.054 141.563 298.979 141.723 298.83 141.872C298.681 142.011 298.489 142.08 298.254 142.08C297.603 142.08 297.086 142.048 296.702 141.984C296.318 141.909 296.025 141.803 295.822 141.664C295.63 141.525 295.491 141.355 295.406 141.152C295.331 140.939 295.273 140.693 295.23 140.416L295.71 140.448C295.539 140.789 295.353 141.067 295.15 141.28C294.958 141.493 294.734 141.659 294.478 141.776C294.222 141.893 293.913 141.973 293.55 142.016C293.198 142.059 292.777 142.08 292.286 142.08ZM296.318 145.104C296.094 145.104 295.902 145.024 295.742 144.864C295.593 144.715 295.518 144.533 295.518 144.32C295.518 144.107 295.593 143.92 295.742 143.76C295.902 143.6 296.094 143.52 296.318 143.52C296.531 143.52 296.713 143.6 296.862 143.76C297.022 143.92 297.102 144.107 297.102 144.32C297.102 144.533 297.022 144.715 296.862 144.864C296.713 145.024 296.531 145.104 296.318 145.104ZM294.126 145.104C293.902 145.104 293.71 145.024 293.55 144.864C293.401 144.715 293.326 144.533 293.326 144.32C293.326 144.107 293.401 143.92 293.55 143.76C293.71 143.6 293.902 143.52 294.126 143.52C294.339 143.52 294.521 143.6 294.67 143.76C294.83 143.92 294.91 144.107 294.91 144.32C294.91 144.533 294.83 144.715 294.67 144.864C294.521 145.024 294.339 145.104 294.126 145.104ZM297.955 142.08L298.115 140.768C298.648 140.768 299.064 140.731 299.363 140.656C299.661 140.571 299.885 140.416 300.035 140.192C300.195 139.957 300.323 139.621 300.419 139.184C300.515 138.747 300.632 138.176 300.771 137.472L302.019 137.712C301.976 137.904 301.928 138.117 301.875 138.352C301.821 138.587 301.773 138.821 301.731 139.056C301.699 139.28 301.683 139.477 301.683 139.648C301.683 139.808 301.693 139.957 301.715 140.096C301.736 140.235 301.816 140.352 301.955 140.448C302.093 140.544 302.328 140.624 302.659 140.688C302.989 140.741 303.464 140.768 304.083 140.768C304.307 140.768 304.467 140.832 304.563 140.96C304.669 141.077 304.723 141.221 304.723 141.392C304.723 141.563 304.648 141.723 304.499 141.872C304.349 142.011 304.157 142.08 303.923 142.08C303.272 142.08 302.755 142.048 302.371 141.984C301.987 141.909 301.693 141.803 301.491 141.664C301.299 141.525 301.16 141.355 301.075 141.152C301 140.939 300.941 140.693 300.899 140.416L301.379 140.448C301.208 140.789 301.021 141.067 300.819 141.28C300.627 141.493 300.403 141.659 300.147 141.776C299.891 141.893 299.581 141.973 299.219 142.016C298.867 142.059 298.445 142.08 297.955 142.08ZM302.227 135.824C302.003 135.824 301.811 135.749 301.651 135.6C301.501 135.44 301.427 135.253 301.427 135.04C301.427 134.827 301.501 134.64 301.651 134.48C301.811 134.32 302.003 134.24 302.227 134.24C302.44 134.24 302.621 134.32 302.771 134.48C302.931 134.64 303.011 134.827 303.011 135.04C303.011 135.253 302.931 135.44 302.771 135.6C302.621 135.749 302.44 135.824 302.227 135.824ZM300.035 135.824C299.811 135.824 299.619 135.749 299.459 135.6C299.309 135.44 299.235 135.253 299.235 135.04C299.235 134.827 299.309 134.64 299.459 134.48C299.619 134.32 299.811 134.24 300.035 134.24C300.248 134.24 300.429 134.32 300.579 134.48C300.739 134.64 300.819 134.827 300.819 135.04C300.819 135.253 300.739 135.44 300.579 135.6C300.429 135.749 300.248 135.824 300.035 135.824ZM303.623 142.08L303.783 140.768C304.125 140.768 304.402 140.747 304.615 140.704C304.829 140.651 305.005 140.528 305.143 140.336C305.293 140.133 305.431 139.819 305.559 139.392C305.687 138.965 305.837 138.368 306.007 137.6L307.207 137.936C307.165 138.117 307.117 138.325 307.063 138.56C307.01 138.784 306.962 139.019 306.919 139.264C306.877 139.499 306.855 139.717 306.855 139.92C306.855 140.187 306.957 140.395 307.159 140.544C307.362 140.693 307.73 140.768 308.263 140.768C308.583 140.768 308.845 140.741 309.047 140.688C309.25 140.635 309.415 140.507 309.543 140.304C309.682 140.101 309.805 139.776 309.911 139.328C310.018 138.88 310.13 138.267 310.247 137.488L311.463 137.712C311.431 137.904 311.394 138.139 311.351 138.416C311.309 138.693 311.266 138.971 311.223 139.248C311.191 139.515 311.175 139.739 311.175 139.92C311.175 140.069 311.207 140.213 311.271 140.352C311.346 140.48 311.485 140.581 311.687 140.656C311.901 140.731 312.215 140.768 312.631 140.768C312.941 140.768 313.207 140.731 313.431 140.656C313.666 140.581 313.842 140.443 313.959 140.24C314.087 140.037 314.151 139.755 314.151 139.392C314.151 138.987 314.055 138.48 313.863 137.872C313.682 137.253 313.474 136.64 313.239 136.032L314.535 135.552C314.674 135.893 314.802 136.283 314.919 136.72C315.047 137.157 315.154 137.589 315.239 138.016C315.325 138.443 315.367 138.816 315.367 139.136C315.367 139.627 315.303 140.059 315.175 140.432C315.047 140.805 314.866 141.115 314.631 141.36C314.397 141.595 314.109 141.776 313.767 141.904C313.426 142.021 313.042 142.08 312.615 142.08C312.114 142.08 311.703 142.021 311.383 141.904C311.063 141.787 310.818 141.611 310.647 141.376C310.477 141.131 310.365 140.821 310.311 140.448H310.855C310.653 140.907 310.439 141.253 310.215 141.488C309.991 141.723 309.714 141.883 309.383 141.968C309.053 142.043 308.615 142.08 308.071 142.08C307.805 142.08 307.517 142.037 307.207 141.952C306.909 141.867 306.647 141.701 306.423 141.456C306.199 141.2 306.066 140.821 306.023 140.32L306.503 140.224C306.322 140.768 306.098 141.173 305.831 141.44C305.575 141.696 305.266 141.867 304.903 141.952C304.541 142.037 304.114 142.08 303.623 142.08ZM322.158 133.424C322.158 133.189 322.142 132.907 322.11 132.576C322.078 132.245 322.041 131.915 321.998 131.584C321.956 131.253 321.913 130.971 321.87 130.736L323.246 130.576C323.278 130.789 323.31 131.072 323.342 131.424C323.385 131.765 323.417 132.107 323.438 132.448C323.46 132.789 323.47 133.072 323.47 133.296C323.47 133.808 323.433 134.309 323.358 134.8C323.294 135.28 323.188 135.755 323.038 136.224C322.889 136.683 322.692 137.131 322.446 137.568L322.254 137.92C321.956 138.421 321.588 138.907 321.15 139.376C320.713 139.835 320.201 140.272 319.614 140.688H321.63C321.993 140.688 322.27 140.645 322.462 140.56C322.654 140.464 322.782 140.341 322.846 140.192C322.921 140.043 322.958 139.883 322.958 139.712C322.958 139.424 322.782 139.067 322.43 138.64C322.089 138.203 321.614 137.723 321.006 137.2C320.398 136.667 319.71 136.107 318.942 135.52C318.174 134.933 317.364 134.336 316.51 133.728L317.262 132.672C318.244 133.397 319.108 134.053 319.854 134.64C320.612 135.227 321.257 135.765 321.79 136.256C322.334 136.736 322.777 137.184 323.118 137.6C323.47 138.005 323.726 138.395 323.886 138.768C324.057 139.131 324.142 139.488 324.142 139.84C324.142 140.075 324.1 140.32 324.014 140.576C323.94 140.821 323.801 141.056 323.598 141.28C323.406 141.493 323.129 141.669 322.766 141.808C322.414 141.936 321.956 142 321.39 142H317.71V140.704C318.809 139.915 319.678 139.147 320.318 138.4C320.969 137.653 321.438 136.875 321.726 136.064C322.014 135.253 322.158 134.373 322.158 133.424ZM326.355 142L326.035 130.576H327.331L327.651 142H326.355ZM332.425 145.68L331.961 144.464C333.038 144.123 333.865 143.712 334.441 143.232C335.028 142.763 335.428 142.272 335.641 141.76C335.865 141.248 335.977 140.757 335.977 140.288C335.977 139.989 335.945 139.701 335.881 139.424C335.817 139.147 335.705 138.832 335.545 138.48C335.385 138.128 335.161 137.691 334.873 137.168L336.041 136.576C336.446 137.269 336.734 137.925 336.905 138.544C337.086 139.163 337.177 139.707 337.177 140.176C337.177 140.848 337.065 141.456 336.841 142C336.628 142.544 336.34 143.024 335.977 143.44C335.625 143.867 335.236 144.229 334.809 144.528C334.393 144.827 333.972 145.072 333.545 145.264C333.129 145.456 332.756 145.595 332.425 145.68ZM342.592 142.08C341.739 142.08 341.083 141.984 340.624 141.792C340.176 141.6 339.867 141.301 339.696 140.896C339.525 140.491 339.429 139.968 339.408 139.328L339.088 130.576H340.4L340.72 138.816C340.741 139.339 340.789 139.744 340.864 140.032C340.949 140.309 341.131 140.501 341.408 140.608C341.696 140.715 342.144 140.768 342.752 140.768C342.976 140.768 343.136 140.832 343.232 140.96C343.339 141.077 343.392 141.221 343.392 141.392C343.392 141.563 343.317 141.723 343.168 141.872C343.019 142.011 342.827 142.08 342.592 142.08ZM342.292 142.08L342.452 140.768H343.956C344.586 140.768 345.082 140.736 345.444 140.672C345.818 140.597 346.09 140.507 346.26 140.4C346.442 140.283 346.559 140.16 346.612 140.032C346.676 139.893 346.708 139.755 346.708 139.616C346.708 139.371 346.612 139.067 346.42 138.704C346.239 138.341 345.86 137.872 345.284 137.296C344.986 136.997 344.687 136.725 344.388 136.48C344.09 136.224 343.812 136 343.556 135.808C343.311 135.605 343.114 135.435 342.964 135.296C342.815 135.157 342.74 135.051 342.74 134.976C342.74 134.816 342.751 134.661 342.772 134.512C342.804 134.363 342.842 134.224 342.884 134.096C342.938 133.968 343.002 133.867 343.076 133.792C343.29 133.568 343.562 133.344 343.892 133.12C344.234 132.896 344.628 132.661 345.076 132.416C345.535 132.171 346.047 131.909 346.612 131.632C347.188 131.344 347.818 131.029 348.5 130.688L349.044 131.872C348.191 132.277 347.476 132.624 346.9 132.912C346.335 133.189 345.855 133.44 345.46 133.664C345.066 133.877 344.719 134.08 344.42 134.272C344.122 134.464 343.818 134.677 343.508 134.912L343.748 134.304C344.42 134.837 345.012 135.339 345.524 135.808C346.047 136.277 346.484 136.731 346.836 137.168C347.188 137.595 347.455 138.016 347.636 138.432C347.818 138.848 347.908 139.269 347.908 139.696C347.908 139.931 347.866 140.187 347.78 140.464C347.695 140.741 347.514 141.003 347.236 141.248C346.959 141.493 346.543 141.696 345.988 141.856C345.434 142.005 344.687 142.08 343.748 142.08H342.292ZM349.146 141.28L349.786 140.176C349.999 140.315 350.298 140.448 350.682 140.576C351.066 140.704 351.514 140.768 352.026 140.768C352.559 140.768 352.981 140.715 353.29 140.608C353.61 140.501 353.839 140.347 353.978 140.144C354.127 139.931 354.202 139.685 354.202 139.408C354.202 139.195 354.154 138.933 354.058 138.624C353.973 138.304 353.781 137.877 353.482 137.344C353.183 136.8 352.725 136.091 352.106 135.216L353.21 134.496C353.775 135.275 354.223 135.979 354.554 136.608C354.895 137.237 355.135 137.792 355.274 138.272C355.423 138.741 355.498 139.147 355.498 139.488C355.498 139.915 355.391 140.331 355.178 140.736C354.965 141.131 354.607 141.456 354.106 141.712C353.605 141.968 352.911 142.096 352.026 142.096C351.642 142.096 351.269 142.064 350.906 142C350.554 141.936 350.229 141.845 349.93 141.728C349.631 141.6 349.37 141.451 349.146 141.28ZM352.042 133.04C351.818 133.04 351.626 132.965 351.466 132.816C351.317 132.656 351.242 132.469 351.242 132.256C351.242 132.043 351.317 131.856 351.466 131.696C351.626 131.536 351.818 131.456 352.042 131.456C352.255 131.456 352.437 131.536 352.586 131.696C352.746 131.856 352.826 132.043 352.826 132.256C352.826 132.469 352.746 132.656 352.586 132.816C352.437 132.965 352.255 133.04 352.042 133.04ZM357.335 142L357.063 131.696H358.359L358.631 142H357.335ZM356.279 130.736L356.087 129.872C356.364 129.808 356.588 129.755 356.759 129.712C356.93 129.669 357.122 129.621 357.335 129.568L357.255 129.904C356.978 129.819 356.711 129.637 356.455 129.36C356.21 129.083 356.087 128.768 356.087 128.416C356.087 128.096 356.162 127.829 356.311 127.616C356.471 127.392 356.674 127.227 356.919 127.12C357.175 127.013 357.447 126.96 357.735 126.96C357.852 126.96 357.975 126.971 358.103 126.992C358.242 127.013 358.37 127.045 358.487 127.088L358.359 127.888C358.252 127.867 358.151 127.845 358.055 127.824C357.959 127.803 357.852 127.792 357.735 127.792C357.49 127.792 357.298 127.845 357.159 127.952C357.02 128.048 356.951 128.187 356.951 128.368C356.951 128.592 357.02 128.784 357.159 128.944C357.308 129.104 357.474 129.232 357.655 129.328C357.847 129.413 358.002 129.456 358.119 129.456L357.463 129.52C357.751 129.445 358.018 129.371 358.263 129.296C358.519 129.211 358.748 129.131 358.951 129.056L359.207 129.872C358.951 129.968 358.647 130.069 358.295 130.176C357.954 130.283 357.607 130.384 357.255 130.48C356.903 130.576 356.578 130.661 356.279 130.736Z" fill="#1E1E1E"/>
<path d="M7 184C7 181.791 8.79086 180 11 180H364C366.209 180 368 181.791 368 184V216C368 218.209 366.209 220 364 220H11C8.79086 220 7 218.209 7 216V184Z" fill="#F5F5F5" fill-opacity="0.8"/>
<path fill-rule="evenodd" clip-rule="evenodd" d="M18.47 200.53C18.3295 200.389 18.2506 200.199 18.2506 200C18.2506 199.801 18.3295 199.611 18.47 199.47L24.47 193.47C24.5386 193.396 24.6214 193.337 24.7134 193.296C24.8054 193.255 24.9047 193.233 25.0054 193.231C25.1061 193.23 25.2062 193.248 25.2995 193.286C25.3929 193.324 25.4778 193.38 25.549 193.451C25.6202 193.522 25.6764 193.607 25.7141 193.7C25.7518 193.794 25.7703 193.894 25.7685 193.995C25.7668 194.095 25.7447 194.195 25.7037 194.287C25.6627 194.379 25.6036 194.461 25.5299 194.53L20.81 199.25L35 199.25C35.1989 199.25 35.3896 199.329 35.5303 199.47C35.6709 199.61 35.75 199.801 35.75 200C35.75 200.199 35.6709 200.39 35.5303 200.53C35.3896 200.671 35.1989 200.75 35 200.75L20.81 200.75L25.53 205.47C25.6036 205.539 25.6627 205.621 25.7037 205.713C25.7447 205.805 25.7668 205.905 25.7685 206.005C25.7703 206.106 25.7518 206.206 25.7141 206.3C25.6764 206.393 25.6202 206.478 25.549 206.549C25.4778 206.62 25.3929 206.676 25.2995 206.714C25.2062 206.752 25.1061 206.77 25.0054 206.769C24.9047 206.767 24.8054 206.745 24.7134 206.704C24.6214 206.663 24.5386 206.604 24.47 206.53L18.47 200.53Z" fill="#1E1E1E"/>
<path d="M293.691 206.016C293.691 205.76 293.712 205.488 293.755 205.2C293.808 204.901 293.883 204.587 293.979 204.256C294.086 203.915 294.214 203.557 294.363 203.184L295.515 203.632C295.408 203.931 295.312 204.213 295.227 204.48C295.152 204.747 295.094 204.997 295.051 205.232C295.019 205.467 295.003 205.691 295.003 205.904C295.003 206.459 295.147 206.917 295.435 207.28C295.723 207.643 296.118 207.915 296.619 208.096C297.12 208.277 297.686 208.368 298.315 208.368C299.03 208.368 299.627 208.272 300.107 208.08C300.598 207.888 300.987 207.632 301.275 207.312C301.563 207.003 301.766 206.656 301.883 206.272C302.011 205.888 302.075 205.509 302.075 205.136C302.075 204.731 301.995 204.24 301.835 203.664C301.686 203.088 301.403 202.373 300.987 201.52L302.187 200.912C302.4 201.317 302.592 201.744 302.763 202.192C302.944 202.629 303.088 203.083 303.195 203.552C303.312 204.011 303.371 204.48 303.371 204.96C303.371 205.376 303.318 205.803 303.211 206.24C303.115 206.677 302.95 207.099 302.715 207.504C302.48 207.92 302.166 208.288 301.771 208.608C301.387 208.939 300.907 209.2 300.331 209.392C299.766 209.584 299.088 209.68 298.299 209.68C297.68 209.68 297.088 209.605 296.523 209.456C295.968 209.317 295.478 209.099 295.051 208.8C294.635 208.501 294.304 208.123 294.059 207.664C293.814 207.205 293.691 206.656 293.691 206.016ZM298.523 199.632C298.299 199.632 298.107 199.557 297.947 199.408C297.798 199.248 297.723 199.061 297.723 198.848C297.723 198.635 297.798 198.448 297.947 198.288C298.107 198.128 298.299 198.048 298.523 198.048C298.736 198.048 298.918 198.128 299.067 198.288C299.227 198.448 299.307 198.635 299.307 198.848C299.307 199.061 299.227 199.248 299.067 199.408C298.918 199.557 298.736 199.632 298.523 199.632ZM305.336 206L305.016 194.576H306.312L306.632 206H305.336ZM307.937 205.28L308.577 204.176C308.79 204.315 309.089 204.448 309.473 204.576C309.857 204.704 310.305 204.768 310.817 204.768C311.35 204.768 311.771 204.715 312.081 204.608C312.401 204.501 312.63 204.347 312.769 204.144C312.918 203.931 312.993 203.685 312.993 203.408C312.993 203.195 312.945 202.933 312.849 202.624C312.763 202.304 312.571 201.877 312.273 201.344C311.974 200.8 311.515 200.091 310.897 199.216L312.001 198.496C312.566 199.275 313.014 199.979 313.345 200.608C313.686 201.237 313.926 201.792 314.065 202.272C314.214 202.741 314.289 203.147 314.289 203.488C314.289 203.915 314.182 204.331 313.969 204.736C313.755 205.131 313.398 205.456 312.897 205.712C312.395 205.968 311.702 206.096 310.817 206.096C310.433 206.096 310.059 206.064 309.697 206C309.345 205.936 309.019 205.845 308.721 205.728C308.422 205.6 308.161 205.451 307.937 205.28ZM310.833 197.04C310.609 197.04 310.417 196.965 310.257 196.816C310.107 196.656 310.033 196.469 310.033 196.256C310.033 196.043 310.107 195.856 310.257 195.696C310.417 195.536 310.609 195.456 310.833 195.456C311.046 195.456 311.227 195.536 311.377 195.696C311.537 195.856 311.617 196.043 311.617 196.256C311.617 196.469 311.537 196.656 311.377 196.816C311.227 196.965 311.046 197.04 310.833 197.04ZM322.27 197.424C322.27 197.189 322.254 196.907 322.222 196.576C322.19 196.245 322.152 195.915 322.11 195.584C322.067 195.253 322.024 194.971 321.982 194.736L323.358 194.576C323.39 194.789 323.422 195.072 323.454 195.424C323.496 195.765 323.528 196.107 323.55 196.448C323.571 196.789 323.582 197.072 323.582 197.296C323.582 197.808 323.544 198.309 323.47 198.8C323.406 199.28 323.299 199.755 323.15 200.224C323 200.683 322.803 201.131 322.558 201.568L322.366 201.92C322.067 202.421 321.699 202.907 321.262 203.376C320.824 203.835 320.312 204.272 319.726 204.688H321.742C322.104 204.688 322.382 204.645 322.574 204.56C322.766 204.464 322.894 204.341 322.958 204.192C323.032 204.043 323.07 203.883 323.07 203.712C323.07 203.424 322.894 203.067 322.542 202.64C322.2 202.203 321.726 201.723 321.118 201.2C320.51 200.667 319.822 200.107 319.054 199.52C318.286 198.933 317.475 198.336 316.622 197.728L317.374 196.672C318.355 197.397 319.219 198.053 319.966 198.64C320.723 199.227 321.368 199.765 321.902 200.256C322.446 200.736 322.888 201.184 323.23 201.6C323.582 202.005 323.838 202.395 323.998 202.768C324.168 203.131 324.254 203.488 324.254 203.84C324.254 204.075 324.211 204.32 324.126 204.576C324.051 204.821 323.912 205.056 323.71 205.28C323.518 205.493 323.24 205.669 322.878 205.808C322.526 205.936 322.067 206 321.502 206H317.822V204.704C318.92 203.915 319.79 203.147 320.43 202.4C321.08 201.653 321.55 200.875 321.838 200.064C322.126 199.253 322.27 198.373 322.27 197.424ZM319.118 195.776C318.798 195.776 318.51 195.723 318.254 195.616C317.998 195.499 317.763 195.387 317.55 195.28C317.336 195.173 317.139 195.12 316.958 195.12C316.766 195.12 316.59 195.168 316.43 195.264C316.28 195.36 316.12 195.493 315.95 195.664L315.342 195.152C315.587 194.843 315.843 194.603 316.11 194.432C316.376 194.251 316.659 194.16 316.958 194.16C317.224 194.16 317.47 194.213 317.694 194.32C317.918 194.427 318.142 194.533 318.366 194.64C318.6 194.747 318.851 194.8 319.118 194.8C319.288 194.8 319.448 194.773 319.598 194.72C319.747 194.656 319.928 194.56 320.142 194.432L320.606 195.088C320.264 195.387 319.971 195.579 319.726 195.664C319.491 195.739 319.288 195.776 319.118 195.776ZM326.467 206L326.147 194.576H327.443L327.763 206H326.467ZM332.537 209.68L332.073 208.464C333.151 208.123 333.977 207.712 334.553 207.232C335.14 206.763 335.54 206.272 335.753 205.76C335.977 205.248 336.089 204.757 336.089 204.288C336.089 203.989 336.057 203.701 335.993 203.424C335.929 203.147 335.817 202.832 335.657 202.48C335.497 202.128 335.273 201.691 334.985 201.168L336.153 200.576C336.559 201.269 336.847 201.925 337.017 202.544C337.199 203.163 337.289 203.707 337.289 204.176C337.289 204.848 337.177 205.456 336.953 206C336.74 206.544 336.452 207.024 336.089 207.44C335.737 207.867 335.348 208.229 334.921 208.528C334.505 208.827 334.084 209.072 333.657 209.264C333.241 209.456 332.868 209.595 332.537 209.68ZM342.704 206.08C341.851 206.08 341.195 205.984 340.736 205.792C340.288 205.6 339.979 205.301 339.808 204.896C339.638 204.491 339.542 203.968 339.52 203.328L339.2 194.576H340.512L340.832 202.816C340.854 203.339 340.902 203.744 340.976 204.032C341.062 204.309 341.243 204.501 341.52 204.608C341.808 204.715 342.256 204.768 342.864 204.768C343.088 204.768 343.248 204.832 343.344 204.96C343.451 205.077 343.504 205.221 343.504 205.392C343.504 205.563 343.43 205.723 343.28 205.872C343.131 206.011 342.939 206.08 342.704 206.08ZM342.405 206.08L342.565 204.768H344.069C344.698 204.768 345.194 204.736 345.557 204.672C345.93 204.597 346.202 204.507 346.373 204.4C346.554 204.283 346.671 204.16 346.725 204.032C346.789 203.893 346.821 203.755 346.821 203.616C346.821 203.371 346.725 203.067 346.533 202.704C346.351 202.341 345.973 201.872 345.397 201.296C345.098 200.997 344.799 200.725 344.501 200.48C344.202 200.224 343.925 200 343.669 199.808C343.423 199.605 343.226 199.435 343.077 199.296C342.927 199.157 342.853 199.051 342.853 198.976C342.853 198.816 342.863 198.661 342.885 198.512C342.917 198.363 342.954 198.224 342.997 198.096C343.05 197.968 343.114 197.867 343.189 197.792C343.402 197.568 343.674 197.344 344.005 197.12C344.346 196.896 344.741 196.661 345.189 196.416C345.647 196.171 346.159 195.909 346.725 195.632C347.301 195.344 347.93 195.029 348.613 194.688L349.157 195.872C348.303 196.277 347.589 196.624 347.013 196.912C346.447 197.189 345.967 197.44 345.573 197.664C345.178 197.877 344.831 198.08 344.533 198.272C344.234 198.464 343.93 198.677 343.621 198.912L343.861 198.304C344.533 198.837 345.125 199.339 345.637 199.808C346.159 200.277 346.597 200.731 346.949 201.168C347.301 201.595 347.567 202.016 347.749 202.432C347.93 202.848 348.021 203.269 348.021 203.696C348.021 203.931 347.978 204.187 347.893 204.464C347.807 204.741 347.626 205.003 347.349 205.248C347.071 205.493 346.655 205.696 346.101 205.856C345.546 206.005 344.799 206.08 343.861 206.08H342.405ZM349.258 205.28L349.898 204.176C350.112 204.315 350.41 204.448 350.794 204.576C351.178 204.704 351.626 204.768 352.138 204.768C352.672 204.768 353.093 204.715 353.402 204.608C353.722 204.501 353.952 204.347 354.09 204.144C354.24 203.931 354.314 203.685 354.314 203.408C354.314 203.195 354.266 202.933 354.17 202.624C354.085 202.304 353.893 201.877 353.594 201.344C353.296 200.8 352.837 200.091 352.218 199.216L353.322 198.496C353.888 199.275 354.336 199.979 354.666 200.608C355.008 201.237 355.248 201.792 355.386 202.272C355.536 202.741 355.61 203.147 355.61 203.488C355.61 203.915 355.504 204.331 355.29 204.736C355.077 205.131 354.72 205.456 354.218 205.712C353.717 205.968 353.024 206.096 352.138 206.096C351.754 206.096 351.381 206.064 351.018 206C350.666 205.936 350.341 205.845 350.042 205.728C349.744 205.6 349.482 205.451 349.258 205.28ZM352.154 197.04C351.93 197.04 351.738 196.965 351.578 196.816C351.429 196.656 351.354 196.469 351.354 196.256C351.354 196.043 351.429 195.856 351.578 195.696C351.738 195.536 351.93 195.456 352.154 195.456C352.368 195.456 352.549 195.536 352.698 195.696C352.858 195.856 352.938 196.043 352.938 196.256C352.938 196.469 352.858 196.656 352.698 196.816C352.549 196.965 352.368 197.04 352.154 197.04ZM357.447 206L357.175 195.696H358.471L358.743 206H357.447ZM356.391 194.736L356.199 193.872C356.477 193.808 356.701 193.755 356.871 193.712C357.042 193.669 357.234 193.621 357.447 193.568L357.367 193.904C357.09 193.819 356.823 193.637 356.567 193.36C356.322 193.083 356.199 192.768 356.199 192.416C356.199 192.096 356.274 191.829 356.423 191.616C356.583 191.392 356.786 191.227 357.031 191.12C357.287 191.013 357.559 190.96 357.847 190.96C357.965 190.96 358.087 190.971 358.215 190.992C358.354 191.013 358.482 191.045 358.599 191.088L358.471 191.888C358.365 191.867 358.263 191.845 358.167 191.824C358.071 191.803 357.965 191.792 357.847 191.792C357.602 191.792 357.41 191.845 357.271 191.952C357.133 192.048 357.063 192.187 357.063 192.368C357.063 192.592 357.133 192.784 357.271 192.944C357.421 193.104 357.586 193.232 357.767 193.328C357.959 193.413 358.114 193.456 358.231 193.456L357.575 193.52C357.863 193.445 358.13 193.371 358.375 193.296C358.631 193.211 358.861 193.131 359.063 193.056L359.319 193.872C359.063 193.968 358.759 194.069 358.407 194.176C358.066 194.283 357.719 194.384 357.367 194.48C357.015 194.576 356.69 194.661 356.391 194.736Z" fill="#1E1E1E"/>
<path d="M7 248C7 245.791 8.79086 244 11 244H364C366.209 244 368 245.791 368 248V280C368 282.209 366.209 284 364 284H11C8.79086 284 7 282.209 7 280V248Z" fill="#F5F5F5" fill-opacity="0.8"/>
<path fill-rule="evenodd" clip-rule="evenodd" d="M18.47 264.53C18.3295 264.389 18.2506 264.199 18.2506 264C18.2506 263.801 18.3295 263.611 18.47 263.47L24.47 257.47C24.5386 257.396 24.6214 257.337 24.7134 257.296C24.8054 257.255 24.9047 257.233 25.0054 257.231C25.1061 257.23 25.2062 257.248 25.2995 257.286C25.3929 257.324 25.4778 257.38 25.549 257.451C25.6202 257.522 25.6764 257.607 25.7141 257.7C25.7518 257.794 25.7703 257.894 25.7685 257.995C25.7668 258.095 25.7447 258.195 25.7037 258.287C25.6627 258.379 25.6036 258.461 25.5299 258.53L20.81 263.25L35 263.25C35.1989 263.25 35.3896 263.329 35.5303 263.47C35.6709 263.61 35.75 263.801 35.75 264C35.75 264.199 35.6709 264.39 35.5303 264.53C35.3896 264.671 35.1989 264.75 35 264.75L20.81 264.75L25.53 269.47C25.6036 269.539 25.6627 269.621 25.7037 269.713C25.7447 269.805 25.7668 269.905 25.7685 270.005C25.7703 270.106 25.7518 270.206 25.7141 270.3C25.6764 270.393 25.6202 270.478 25.549 270.549C25.4778 270.62 25.3929 270.676 25.2995 270.714C25.2062 270.752 25.1061 270.77 25.0054 270.769C24.9047 270.767 24.8054 270.745 24.7134 270.704C24.6214 270.663 24.5386 270.604 24.47 270.53L18.47 264.53Z" fill="#1E1E1E"/>
<path d="M195.684 270C195.161 270 194.692 269.909 194.276 269.728C193.86 269.547 193.529 269.269 193.284 268.896C193.049 268.523 192.932 268.048 192.932 267.472C192.932 267.013 193.108 266.443 193.46 265.76C193.812 265.067 194.425 264.336 195.3 263.568L195.604 264.432L194.516 263.456L195.348 262.464C195.902 262.901 196.414 263.371 196.884 263.872C197.353 264.373 197.732 264.907 198.02 265.472C198.308 266.037 198.452 266.635 198.452 267.264C198.452 267.509 198.409 267.787 198.324 268.096C198.238 268.405 198.094 268.709 197.892 269.008C197.689 269.296 197.406 269.536 197.044 269.728C196.681 269.909 196.228 270 195.684 270ZM195.684 268.688C196.046 268.688 196.345 268.629 196.58 268.512C196.825 268.384 197.006 268.208 197.124 267.984C197.252 267.76 197.316 267.499 197.316 267.2C197.316 266.933 197.268 266.656 197.172 266.368C197.086 266.069 196.905 265.749 196.628 265.408C196.361 265.056 195.95 264.661 195.396 264.224L196.1 264.192C195.705 264.533 195.364 264.896 195.076 265.28C194.788 265.653 194.569 266.021 194.42 266.384C194.27 266.736 194.196 267.056 194.196 267.344C194.196 267.792 194.334 268.128 194.612 268.352C194.9 268.576 195.257 268.688 195.684 268.688ZM196.9 261.04C196.676 261.04 196.484 260.965 196.324 260.816C196.174 260.656 196.1 260.469 196.1 260.256C196.1 260.043 196.174 259.856 196.324 259.696C196.484 259.536 196.676 259.456 196.9 259.456C197.113 259.456 197.294 259.536 197.444 259.696C197.604 259.856 197.684 260.043 197.684 260.256C197.684 260.469 197.604 260.656 197.444 260.816C197.294 260.965 197.113 261.04 196.9 261.04ZM194.708 261.04C194.484 261.04 194.292 260.965 194.132 260.816C193.982 260.656 193.908 260.469 193.908 260.256C193.908 260.043 193.982 259.856 194.132 259.696C194.292 259.536 194.484 259.456 194.708 259.456C194.921 259.456 195.102 259.536 195.252 259.696C195.412 259.856 195.492 260.043 195.492 260.256C195.492 260.469 195.412 260.656 195.252 260.816C195.102 260.965 194.921 261.04 194.708 261.04ZM208.22 270.08C207.58 270.08 207.052 270.027 206.636 269.92C206.231 269.813 205.911 269.648 205.676 269.424C205.452 269.2 205.292 268.917 205.196 268.576C205.111 268.224 205.057 267.808 205.036 267.328L204.716 258.576H206.028L206.348 266.816C206.369 267.339 206.417 267.744 206.492 268.032C206.577 268.309 206.759 268.501 207.036 268.608C207.324 268.715 207.772 268.768 208.38 268.768C208.604 268.768 208.764 268.832 208.86 268.96C208.967 269.077 209.02 269.221 209.02 269.392C209.02 269.563 208.945 269.723 208.796 269.872C208.647 270.011 208.455 270.08 208.22 270.08ZM200.908 270.08C200.62 270.08 200.327 270.053 200.028 270C199.74 269.957 199.537 269.925 199.42 269.904L199.596 268.64C200.332 268.736 201.025 268.752 201.676 268.688C202.327 268.624 202.892 268.443 203.372 268.144C203.863 267.835 204.247 267.371 204.524 266.752C204.801 266.133 204.94 265.328 204.94 264.336L205.708 266.256C205.58 266.928 205.388 267.493 205.132 267.952C204.876 268.4 204.577 268.768 204.236 269.056C203.905 269.333 203.548 269.547 203.164 269.696C202.78 269.845 202.396 269.947 202.012 270C201.628 270.053 201.26 270.08 200.908 270.08ZM204.38 267.888C204.209 267.557 203.969 267.173 203.66 266.736C203.351 266.288 202.977 265.803 202.54 265.28C202.103 264.757 201.607 264.213 201.052 263.648C200.508 263.083 199.916 262.512 199.276 261.936L200.14 261.024C200.844 261.696 201.468 262.325 202.012 262.912C202.567 263.488 203.052 264.032 203.468 264.544C203.884 265.045 204.241 265.504 204.54 265.92C204.839 266.336 205.089 266.715 205.292 267.056L204.38 267.888ZM223.098 270.08C222.821 270.08 222.469 270.053 222.042 270C221.626 269.936 221.199 269.829 220.762 269.68C220.335 269.531 219.973 269.323 219.674 269.056L220.986 268.4C221.359 268.549 221.743 268.651 222.138 268.704C222.543 268.747 222.917 268.768 223.258 268.768C223.482 268.768 223.642 268.832 223.738 268.96C223.845 269.077 223.898 269.221 223.898 269.392C223.898 269.563 223.823 269.723 223.674 269.872C223.525 270.011 223.333 270.08 223.098 270.08ZM215.658 270.288C214.719 270.288 213.93 270.251 213.29 270.176C212.661 270.112 212.149 270.011 211.754 269.872C211.359 269.733 211.061 269.557 210.858 269.344C210.655 269.131 210.517 268.875 210.442 268.576L210.81 268.448C210.543 268.96 210.255 269.333 209.946 269.568C209.637 269.792 209.311 269.936 208.97 270C208.639 270.053 208.287 270.08 207.914 270.08L208.074 268.768C208.447 268.768 208.751 268.715 208.986 268.608C209.231 268.501 209.429 268.325 209.578 268.08C209.738 267.835 209.877 267.509 209.994 267.104C210.111 266.699 210.239 266.197 210.378 265.6L211.546 265.904C211.482 266.149 211.423 266.384 211.37 266.608C211.317 266.832 211.274 267.029 211.242 267.2C211.221 267.36 211.21 267.488 211.21 267.584C211.21 267.84 211.269 268.059 211.386 268.24C211.503 268.411 211.727 268.555 212.058 268.672C212.389 268.779 212.863 268.859 213.482 268.912C214.111 268.955 214.933 268.976 215.946 268.976C216.65 268.976 217.279 268.933 217.834 268.848C218.389 268.763 218.853 268.635 219.226 268.464C219.61 268.283 219.903 268.064 220.106 267.808C220.309 267.552 220.41 267.259 220.41 266.928C220.41 266.693 220.351 266.464 220.234 266.24C220.117 266.005 219.935 265.808 219.69 265.648C219.445 265.488 219.119 265.408 218.714 265.408C218.202 265.408 217.69 265.541 217.178 265.808C216.677 266.075 216.197 266.411 215.738 266.816C215.29 267.211 214.89 267.616 214.538 268.032C214.186 268.448 213.903 268.811 213.69 269.12L212.298 269.072C212.639 268.517 213.045 267.952 213.514 267.376C213.994 266.789 214.517 266.251 215.082 265.76C215.658 265.259 216.261 264.859 216.89 264.56C217.519 264.251 218.159 264.096 218.81 264.096C219.397 264.096 219.898 264.219 220.314 264.464C220.741 264.699 221.066 265.019 221.29 265.424C221.525 265.829 221.642 266.288 221.642 266.8C221.642 267.429 221.455 268.011 221.082 268.544C220.719 269.067 220.101 269.488 219.226 269.808C218.351 270.128 217.162 270.288 215.658 270.288ZM222.802 270.08L222.946 268.768C223.554 268.768 223.98 268.709 224.226 268.592C224.471 268.475 224.61 268.267 224.642 267.968C224.684 267.669 224.695 267.253 224.674 266.72L224.37 258.576H225.666L225.986 266.576C226.007 267.141 225.986 267.643 225.922 268.08C225.868 268.517 225.73 268.885 225.506 269.184C225.292 269.483 224.967 269.707 224.53 269.856C224.103 270.005 223.527 270.08 222.802 270.08ZM228.13 270L227.81 258.576H229.106L229.426 270H228.13ZM234.616 270.016C234.616 269.632 234.669 269.205 234.776 268.736C234.883 268.267 235.053 267.749 235.288 267.184L236.44 267.632C236.269 268.08 236.141 268.491 236.056 268.864C235.971 269.237 235.928 269.584 235.928 269.904C235.928 270.491 236.072 270.965 236.36 271.328C236.659 271.701 237.053 271.973 237.544 272.144C238.045 272.315 238.595 272.4 239.192 272.4C239.917 272.4 240.525 272.32 241.016 272.16C241.507 272.011 241.896 271.803 242.184 271.536C242.472 271.269 242.675 270.965 242.792 270.624C242.92 270.293 242.984 269.947 242.984 269.584C242.984 269.115 242.947 268.672 242.872 268.256C242.808 267.84 242.717 267.435 242.6 267.04C242.493 266.635 242.376 266.224 242.248 265.808L243.544 265.456C243.661 265.861 243.752 266.192 243.816 266.448C243.88 266.693 243.928 266.891 243.96 267.04C244.003 267.189 244.04 267.323 244.072 267.44C244.189 267.835 244.344 268.128 244.536 268.32C244.728 268.501 244.947 268.624 245.192 268.688C245.448 268.741 245.709 268.768 245.976 268.768C246.2 268.768 246.36 268.832 246.456 268.96C246.563 269.077 246.616 269.221 246.616 269.392C246.616 269.563 246.541 269.723 246.392 269.872C246.243 270.011 246.051 270.08 245.816 270.08C245.368 270.08 244.995 270.005 244.696 269.856C244.397 269.696 244.163 269.499 243.992 269.264C243.832 269.029 243.725 268.784 243.672 268.528L244.328 269.344C244.296 269.888 244.189 270.416 244.008 270.928C243.837 271.451 243.56 271.92 243.176 272.336C242.792 272.763 242.269 273.099 241.608 273.344C240.957 273.589 240.136 273.712 239.144 273.712C238.536 273.712 237.96 273.637 237.416 273.488C236.872 273.339 236.387 273.109 235.96 272.8C235.544 272.501 235.213 272.117 234.968 271.648C234.733 271.189 234.616 270.645 234.616 270.016ZM239.448 263.632C239.224 263.632 239.032 263.557 238.872 263.408C238.723 263.248 238.648 263.061 238.648 262.848C238.648 262.635 238.723 262.448 238.872 262.288C239.032 262.128 239.224 262.048 239.448 262.048C239.661 262.048 239.843 262.128 239.992 262.288C240.152 262.448 240.232 262.635 240.232 262.848C240.232 263.061 240.152 263.248 239.992 263.408C239.843 263.557 239.661 263.632 239.448 263.632ZM245.523 270.08L245.683 268.768C245.982 268.768 246.233 268.704 246.435 268.576C246.638 268.448 246.835 268.235 247.027 267.936C247.219 267.637 247.427 267.237 247.651 266.736C247.961 266.053 248.265 265.536 248.563 265.184C248.873 264.832 249.177 264.592 249.475 264.464C249.785 264.336 250.089 264.272 250.387 264.272C250.75 264.272 251.086 264.368 251.395 264.56C251.705 264.741 251.977 264.987 252.211 265.296C252.446 265.605 252.627 265.947 252.755 266.32C252.894 266.683 252.963 267.045 252.963 267.408C252.963 268.048 252.851 268.56 252.627 268.944C252.403 269.317 252.115 269.589 251.763 269.76C251.422 269.92 251.065 270 250.691 270C250.361 270 249.934 269.936 249.411 269.808C248.899 269.68 248.249 269.355 247.459 268.832L248.083 267.824C248.606 268.155 249.075 268.384 249.491 268.512C249.918 268.629 250.27 268.688 250.547 268.688C250.857 268.688 251.102 268.645 251.283 268.56C251.465 268.464 251.598 268.331 251.683 268.16C251.769 267.989 251.811 267.797 251.811 267.584C251.811 267.275 251.737 266.965 251.587 266.656C251.438 266.347 251.246 266.091 251.011 265.888C250.787 265.685 250.547 265.584 250.291 265.584C250.099 265.584 249.913 265.637 249.731 265.744C249.55 265.851 249.363 266.048 249.171 266.336C248.979 266.624 248.761 267.04 248.515 267.584C248.259 268.16 248.014 268.619 247.779 268.96C247.555 269.291 247.326 269.536 247.091 269.696C246.857 269.856 246.611 269.957 246.355 270C246.11 270.053 245.833 270.08 245.523 270.08ZM258.779 276.288C258.598 275.584 258.438 274.896 258.299 274.224C258.171 273.552 258.075 272.933 258.011 272.368C257.947 271.803 257.915 271.339 257.915 270.976C257.915 270.325 258.033 269.787 258.267 269.36C258.502 268.923 258.817 268.587 259.211 268.352C259.606 268.107 260.043 267.941 260.523 267.856C261.014 267.771 261.515 267.744 262.027 267.776C262.55 267.797 263.041 267.861 263.499 267.968C263.531 267.605 263.51 267.259 263.435 266.928C263.371 266.587 263.259 266.288 263.099 266.032C262.95 265.765 262.758 265.557 262.523 265.408C262.289 265.259 262.022 265.184 261.723 265.184C261.457 265.184 261.206 265.243 260.971 265.36C260.737 265.477 260.513 265.659 260.299 265.904C260.097 266.139 259.899 266.432 259.707 266.784L258.715 266.24C258.993 265.664 259.297 265.205 259.627 264.864C259.969 264.523 260.326 264.277 260.699 264.128C261.073 263.968 261.441 263.888 261.803 263.888C262.347 263.888 262.806 264.005 263.179 264.24C263.553 264.464 263.846 264.763 264.059 265.136C264.283 265.499 264.443 265.893 264.539 266.32C264.646 266.736 264.699 267.136 264.699 267.52C264.699 267.787 264.667 268.053 264.603 268.32C264.539 268.587 264.459 268.827 264.363 269.04C264.278 269.253 264.193 269.419 264.107 269.536C263.531 269.365 262.993 269.243 262.491 269.168C261.99 269.093 261.537 269.072 261.131 269.104C260.737 269.125 260.395 269.211 260.107 269.36C259.819 269.509 259.601 269.723 259.451 270C259.302 270.277 259.227 270.629 259.227 271.056C259.227 271.451 259.259 271.92 259.323 272.464C259.387 273.008 259.478 273.579 259.595 274.176C259.713 274.784 259.851 275.381 260.011 275.968L258.779 276.288ZM274.629 270.08C273.989 270.08 273.461 270.027 273.045 269.92C272.64 269.813 272.32 269.648 272.085 269.424C271.861 269.2 271.701 268.917 271.605 268.576C271.52 268.224 271.467 267.808 271.445 267.328L271.125 258.576H272.437L272.757 266.816C272.779 267.339 272.827 267.744 272.901 268.032C272.987 268.309 273.168 268.501 273.445 268.608C273.733 268.715 274.181 268.768 274.789 268.768C275.013 268.768 275.173 268.832 275.269 268.96C275.376 269.077 275.429 269.221 275.429 269.392C275.429 269.563 275.355 269.723 275.205 269.872C275.056 270.011 274.864 270.08 274.629 270.08ZM267.317 270.08C267.029 270.08 266.736 270.053 266.437 270C266.149 269.957 265.947 269.925 265.829 269.904L266.005 268.64C266.741 268.736 267.435 268.752 268.085 268.688C268.736 268.624 269.301 268.443 269.781 268.144C270.272 267.835 270.656 267.371 270.933 266.752C271.211 266.133 271.349 265.328 271.349 264.336L272.117 266.256C271.989 266.928 271.797 267.493 271.541 267.952C271.285 268.4 270.987 268.768 270.645 269.056C270.315 269.333 269.957 269.547 269.573 269.696C269.189 269.845 268.805 269.947 268.421 270C268.037 270.053 267.669 270.08 267.317 270.08ZM270.789 267.888C270.619 267.557 270.379 267.173 270.069 266.736C269.76 266.288 269.387 265.803 268.949 265.28C268.512 264.757 268.016 264.213 267.461 263.648C266.917 263.083 266.325 262.512 265.685 261.936L266.549 261.024C267.253 261.696 267.877 262.325 268.421 262.912C268.976 263.488 269.461 264.032 269.877 264.544C270.293 265.045 270.651 265.504 270.949 265.92C271.248 266.336 271.499 266.715 271.701 267.056L270.789 267.888ZM274.323 270.08L274.483 268.768C274.825 268.768 275.102 268.747 275.315 268.704C275.529 268.651 275.705 268.528 275.843 268.336C275.993 268.133 276.131 267.819 276.259 267.392C276.387 266.965 276.537 266.368 276.707 265.6L277.907 265.936C277.843 266.203 277.769 266.523 277.683 266.896C277.598 267.269 277.555 267.611 277.555 267.92C277.555 268.091 277.598 268.24 277.683 268.368C277.769 268.496 277.913 268.597 278.115 268.672C278.329 268.736 278.611 268.768 278.963 268.768C279.283 268.768 279.545 268.741 279.747 268.688C279.95 268.635 280.115 268.507 280.243 268.304C280.382 268.101 280.505 267.776 280.611 267.328C280.718 266.88 280.83 266.267 280.947 265.488L282.163 265.712C282.131 265.904 282.094 266.139 282.051 266.416C282.009 266.693 281.966 266.971 281.923 267.248C281.891 267.515 281.875 267.739 281.875 267.92C281.875 268.069 281.907 268.213 281.971 268.352C282.046 268.48 282.185 268.581 282.387 268.656C282.601 268.731 282.915 268.768 283.331 268.768C283.865 268.768 284.249 268.656 284.483 268.432C284.729 268.208 284.851 267.867 284.851 267.408C284.851 267.163 284.846 266.907 284.835 266.64C284.825 266.363 284.803 266.059 284.771 265.728C284.75 265.387 284.713 264.997 284.659 264.56L285.827 264.48C285.891 265.344 285.961 266.053 286.035 266.608C286.121 267.163 286.238 267.6 286.387 267.92C286.547 268.229 286.761 268.448 287.027 268.576C287.294 268.704 287.646 268.768 288.083 268.768C288.307 268.768 288.467 268.832 288.563 268.96C288.67 269.077 288.723 269.221 288.723 269.392C288.723 269.563 288.649 269.723 288.499 269.872C288.35 270.011 288.158 270.08 287.923 270.08C287.561 270.08 287.235 270.032 286.947 269.936C286.67 269.829 286.425 269.691 286.211 269.52C286.009 269.339 285.838 269.136 285.699 268.912C285.571 268.677 285.481 268.432 285.427 268.176L285.715 268.272C285.598 268.752 285.411 269.125 285.155 269.392C284.91 269.648 284.617 269.829 284.275 269.936C283.934 270.032 283.571 270.08 283.187 270.08C282.718 270.08 282.334 270.021 282.035 269.904C281.737 269.787 281.502 269.611 281.331 269.376C281.171 269.131 281.065 268.821 281.011 268.448H281.555C281.353 268.907 281.139 269.253 280.915 269.488C280.691 269.723 280.414 269.883 280.083 269.968C279.753 270.043 279.315 270.08 278.771 270.08C278.505 270.08 278.217 270.037 277.907 269.952C277.609 269.867 277.347 269.701 277.123 269.456C276.899 269.2 276.766 268.821 276.723 268.32L277.203 268.224C277.022 268.768 276.798 269.173 276.531 269.44C276.275 269.696 275.966 269.867 275.603 269.952C275.241 270.037 274.814 270.08 274.323 270.08ZM287.617 270.08L287.761 268.768C288.369 268.768 288.796 268.709 289.041 268.592C289.287 268.475 289.425 268.267 289.457 267.968C289.5 267.669 289.511 267.253 289.489 266.72L289.185 258.576H290.481L290.801 266.576C290.823 267.141 290.801 267.643 290.737 268.08C290.684 268.517 290.545 268.885 290.321 269.184C290.108 269.483 289.783 269.707 289.345 269.856C288.919 270.005 288.343 270.08 287.617 270.08ZM292.945 270L292.625 258.576H293.921L294.241 270H292.945ZM302.392 268.768C302.925 268.768 303.346 268.715 303.656 268.608C303.976 268.501 304.205 268.347 304.344 268.144C304.493 267.931 304.568 267.685 304.568 267.408C304.568 267.195 304.509 266.939 304.392 266.64C304.285 266.341 304.136 266.011 303.944 265.648C303.752 265.275 303.528 264.885 303.272 264.48C303.026 264.064 302.76 263.643 302.472 263.216L303.576 262.496C303.992 263.125 304.354 263.723 304.664 264.288C304.973 264.843 305.234 265.365 305.448 265.856C305.661 266.336 305.832 266.789 305.96 267.216C306.109 267.685 306.274 268.032 306.456 268.256C306.648 268.48 306.845 268.624 307.048 268.688C307.25 268.741 307.437 268.768 307.608 268.768C307.832 268.768 307.997 268.832 308.104 268.96C308.21 269.077 308.264 269.221 308.264 269.392C308.264 269.563 308.189 269.723 308.04 269.872C307.89 270.011 307.698 270.08 307.464 270.08C307.112 270.08 306.765 270.016 306.424 269.888C306.093 269.749 305.805 269.531 305.56 269.232C305.314 268.923 305.144 268.512 305.048 268L305.688 267.488C305.688 267.915 305.597 268.331 305.416 268.736C305.234 269.131 304.904 269.456 304.424 269.712C303.954 269.968 303.277 270.096 302.392 270.096C302.008 270.096 301.634 270.064 301.272 270C300.92 269.936 300.594 269.845 300.296 269.728C299.997 269.6 299.736 269.451 299.512 269.28L300.152 268.176C300.365 268.315 300.664 268.448 301.048 268.576C301.432 268.704 301.88 268.768 302.392 268.768ZM307.167 270.08L307.327 268.768C307.967 268.768 308.57 268.709 309.135 268.592C309.701 268.464 310.218 268.299 310.687 268.096C311.167 267.883 311.578 267.643 311.919 267.376C312.261 267.099 312.522 266.816 312.703 266.528C312.895 266.229 312.991 265.936 312.991 265.648C312.991 265.509 312.943 265.371 312.847 265.232C312.751 265.083 312.586 264.96 312.351 264.864C312.127 264.768 311.823 264.72 311.439 264.72C311.205 264.72 310.943 264.752 310.655 264.816C310.367 264.88 310.09 264.971 309.823 265.088C309.567 265.195 309.354 265.317 309.183 265.456C309.471 265.691 309.738 265.92 309.983 266.144C310.239 266.368 310.501 266.613 310.767 266.88C311.034 267.136 311.322 267.429 311.631 267.76C311.877 267.941 312.149 268.096 312.447 268.224C312.757 268.352 313.087 268.459 313.439 268.544C313.802 268.619 314.17 268.677 314.543 268.72C314.917 268.752 315.29 268.768 315.663 268.768C315.887 268.768 316.047 268.832 316.143 268.96C316.25 269.077 316.303 269.221 316.303 269.392C316.303 269.563 316.229 269.723 316.079 269.872C315.93 270.011 315.738 270.08 315.503 270.08C314.917 270.08 314.314 270.027 313.695 269.92C313.087 269.803 312.517 269.632 311.983 269.408C311.45 269.173 310.997 268.88 310.623 268.528C310.442 268.293 310.239 268.059 310.015 267.824C309.791 267.589 309.546 267.355 309.279 267.12C309.023 266.875 308.746 266.645 308.447 266.432C308.383 266.379 308.319 266.283 308.255 266.144C308.191 266.005 308.138 265.861 308.095 265.712C308.053 265.563 308.031 265.451 308.031 265.376C308.031 265.216 308.133 265.024 308.335 264.8C308.538 264.576 308.81 264.363 309.151 264.16C309.493 263.947 309.882 263.771 310.319 263.632C310.757 263.493 311.21 263.424 311.679 263.424C312.287 263.424 312.778 263.515 313.151 263.696C313.535 263.877 313.813 264.112 313.983 264.4C314.165 264.677 314.255 264.976 314.255 265.296C314.255 265.765 314.138 266.235 313.903 266.704C313.669 267.163 313.333 267.595 312.895 268C312.458 268.405 311.946 268.768 311.359 269.088C310.773 269.397 310.122 269.643 309.407 269.824C308.703 269.995 307.957 270.08 307.167 270.08ZM315.211 270.08L315.371 268.768C315.894 268.768 316.31 268.736 316.619 268.672C316.928 268.608 317.152 268.48 317.291 268.288C317.43 268.085 317.499 267.787 317.499 267.392C317.499 267.125 317.456 266.811 317.371 266.448C317.286 266.075 317.174 265.68 317.035 265.264C316.896 264.848 316.747 264.437 316.587 264.032L317.883 263.552C318.022 263.893 318.15 264.283 318.267 264.72C318.395 265.157 318.502 265.589 318.587 266.016C318.672 266.443 318.715 266.816 318.715 267.136C318.715 267.563 318.667 267.941 318.571 268.272C318.486 268.592 318.352 268.869 318.171 269.104C317.99 269.328 317.755 269.515 317.467 269.664C317.19 269.803 316.864 269.909 316.491 269.984C316.118 270.048 315.691 270.08 315.211 270.08ZM316.923 273.056C316.699 273.056 316.507 272.976 316.347 272.816C316.198 272.667 316.123 272.485 316.123 272.272C316.123 272.059 316.198 271.872 316.347 271.712C316.507 271.552 316.699 271.472 316.923 271.472C317.136 271.472 317.318 271.552 317.467 271.712C317.627 271.872 317.707 272.059 317.707 272.272C317.707 272.485 317.627 272.667 317.467 272.816C317.318 272.976 317.136 273.056 316.923 273.056ZM323.237 273.68L322.773 272.464C323.851 272.123 324.677 271.712 325.253 271.232C325.84 270.763 326.24 270.272 326.453 269.76C326.677 269.248 326.789 268.757 326.789 268.288C326.789 267.989 326.757 267.701 326.693 267.424C326.629 267.147 326.517 266.832 326.357 266.48C326.197 266.128 325.973 265.691 325.685 265.168L326.853 264.576C327.259 265.269 327.547 265.925 327.717 266.544C327.899 267.163 327.989 267.707 327.989 268.176C327.989 268.848 327.877 269.456 327.653 270C327.44 270.544 327.152 271.024 326.789 271.44C326.437 271.867 326.048 272.229 325.621 272.528C325.205 272.827 324.784 273.072 324.357 273.264C323.941 273.456 323.568 273.595 323.237 273.68ZM333.404 270.08C332.551 270.08 331.895 269.984 331.436 269.792C330.988 269.6 330.679 269.301 330.508 268.896C330.338 268.491 330.242 267.968 330.22 267.328L329.9 258.576H331.212L331.532 266.816C331.554 267.339 331.602 267.744 331.676 268.032C331.762 268.309 331.943 268.501 332.22 268.608C332.508 268.715 332.956 268.768 333.564 268.768C333.788 268.768 333.948 268.832 334.044 268.96C334.151 269.077 334.204 269.221 334.204 269.392C334.204 269.563 334.13 269.723 333.98 269.872C333.831 270.011 333.639 270.08 333.404 270.08ZM333.105 270.08L333.265 268.768H334.769C335.398 268.768 335.894 268.736 336.257 268.672C336.63 268.597 336.902 268.507 337.073 268.4C337.254 268.283 337.371 268.16 337.425 268.032C337.489 267.893 337.521 267.755 337.521 267.616C337.521 267.371 337.425 267.067 337.233 266.704C337.051 266.341 336.673 265.872 336.097 265.296C335.798 264.997 335.499 264.725 335.201 264.48C334.902 264.224 334.625 264 334.369 263.808C334.123 263.605 333.926 263.435 333.777 263.296C333.627 263.157 333.553 263.051 333.553 262.976C333.553 262.816 333.563 262.661 333.585 262.512C333.617 262.363 333.654 262.224 333.697 262.096C333.75 261.968 333.814 261.867 333.889 261.792C334.102 261.568 334.374 261.344 334.705 261.12C335.046 260.896 335.441 260.661 335.889 260.416C336.347 260.171 336.859 259.909 337.425 259.632C338.001 259.344 338.63 259.029 339.313 258.688L339.857 259.872C339.003 260.277 338.289 260.624 337.713 260.912C337.147 261.189 336.667 261.44 336.273 261.664C335.878 261.877 335.531 262.08 335.233 262.272C334.934 262.464 334.63 262.677 334.321 262.912L334.561 262.304C335.233 262.837 335.825 263.339 336.337 263.808C336.859 264.277 337.297 264.731 337.649 265.168C338.001 265.595 338.267 266.016 338.449 266.432C338.63 266.848 338.721 267.269 338.721 267.696C338.721 267.931 338.678 268.187 338.593 268.464C338.507 268.741 338.326 269.003 338.049 269.248C337.771 269.493 337.355 269.696 336.801 269.856C336.246 270.005 335.499 270.08 334.561 270.08H333.105ZM339.958 269.28L340.598 268.176C340.812 268.315 341.11 268.448 341.494 268.576C341.878 268.704 342.326 268.768 342.838 268.768C343.372 268.768 343.793 268.715 344.102 268.608C344.422 268.501 344.652 268.347 344.79 268.144C344.94 267.931 345.014 267.685 345.014 267.408C345.014 267.195 344.966 266.933 344.87 266.624C344.785 266.304 344.593 265.877 344.294 265.344C343.996 264.8 343.537 264.091 342.918 263.216L344.022 262.496C344.588 263.275 345.036 263.979 345.366 264.608C345.708 265.237 345.948 265.792 346.086 266.272C346.236 266.741 346.31 267.147 346.31 267.488C346.31 267.915 346.204 268.331 345.99 268.736C345.777 269.131 345.42 269.456 344.918 269.712C344.417 269.968 343.724 270.096 342.838 270.096C342.454 270.096 342.081 270.064 341.718 270C341.366 269.936 341.041 269.845 340.742 269.728C340.444 269.6 340.182 269.451 339.958 269.28ZM342.854 261.04C342.63 261.04 342.438 260.965 342.278 260.816C342.129 260.656 342.054 260.469 342.054 260.256C342.054 260.043 342.129 259.856 342.278 259.696C342.438 259.536 342.63 259.456 342.854 259.456C343.068 259.456 343.249 259.536 343.398 259.696C343.558 259.856 343.638 260.043 343.638 260.256C343.638 260.469 343.558 260.656 343.398 260.816C343.249 260.965 343.068 261.04 342.854 261.04ZM353.011 261.424C353.011 261.189 352.995 260.907 352.963 260.576C352.931 260.245 352.894 259.915 352.851 259.584C352.809 259.253 352.766 258.971 352.723 258.736L354.099 258.576C354.131 258.789 354.163 259.072 354.195 259.424C354.238 259.765 354.27 260.107 354.291 260.448C354.313 260.789 354.323 261.072 354.323 261.296C354.323 261.808 354.286 262.309 354.211 262.8C354.147 263.28 354.041 263.755 353.891 264.224C353.742 264.683 353.545 265.131 353.299 265.568L353.107 265.92C352.809 266.421 352.441 266.907 352.003 267.376C351.566 267.835 351.054 268.272 350.467 268.688H352.483C352.846 268.688 353.123 268.645 353.315 268.56C353.507 268.464 353.635 268.341 353.699 268.192C353.774 268.043 353.811 267.883 353.811 267.712C353.811 267.424 353.635 267.067 353.283 266.64C352.942 266.203 352.467 265.723 351.859 265.2C351.251 264.667 350.563 264.107 349.795 263.52C349.027 262.933 348.217 262.336 347.363 261.728L348.115 260.672C349.097 261.397 349.961 262.053 350.707 262.64C351.465 263.227 352.11 263.765 352.643 264.256C353.187 264.736 353.63 265.184 353.971 265.6C354.323 266.005 354.579 266.395 354.739 266.768C354.91 267.131 354.995 267.488 354.995 267.84C354.995 268.075 354.953 268.32 354.867 268.576C354.793 268.821 354.654 269.056 354.451 269.28C354.259 269.493 353.982 269.669 353.619 269.808C353.267 269.936 352.809 270 352.243 270H348.563V268.704C349.662 267.915 350.531 267.147 351.171 266.4C351.822 265.653 352.291 264.875 352.579 264.064C352.867 263.253 353.011 262.373 353.011 261.424ZM347.139 259.824L346.947 258.96C347.225 258.896 347.449 258.843 347.619 258.8C347.79 258.757 347.982 258.709 348.195 258.656L348.115 258.992C347.838 258.907 347.571 258.725 347.315 258.448C347.07 258.171 346.947 257.856 346.947 257.504C346.947 257.184 347.022 256.917 347.171 256.704C347.331 256.48 347.534 256.315 347.779 256.208C348.035 256.101 348.307 256.048 348.595 256.048C348.713 256.048 348.835 256.059 348.963 256.08C349.102 256.101 349.23 256.133 349.347 256.176L349.219 256.976C349.113 256.955 349.011 256.933 348.915 256.912C348.819 256.891 348.713 256.88 348.595 256.88C348.35 256.88 348.158 256.933 348.019 257.04C347.881 257.136 347.811 257.275 347.811 257.456C347.811 257.68 347.881 257.872 348.019 258.032C348.169 258.192 348.334 258.32 348.515 258.416C348.707 258.501 348.862 258.544 348.979 258.544L348.323 258.608C348.611 258.533 348.878 258.459 349.123 258.384C349.379 258.299 349.609 258.219 349.811 258.144L350.067 258.96C349.811 259.056 349.507 259.157 349.155 259.264C348.814 259.371 348.467 259.472 348.115 259.568C347.763 259.664 347.438 259.749 347.139 259.824ZM357.208 270L356.888 258.576H358.184L358.504 270H357.208Z" fill="#1E1E1E"/>
<path fill-rule="evenodd" clip-rule="evenodd" d="M304 20H305C305.552 20 306 20.4477 306 21V27C306 27.5523 305.552 28 305 28H304C303.448 28 303 27.5523 303 27V21C303 20.4477 303.448 20 304 20Z" fill="black"/>
<path fill-rule="evenodd" clip-rule="evenodd" d="M299.5 22H300.5C301.052 22 301.5 22.4477 301.5 23V27C301.5 27.5523 301.052 28 300.5 28H299.5C298.948 28 298.5 27.5523 298.5 27V23C298.5 22.4477 298.948 22 299.5 22Z" fill="black"/>
<path fill-rule="evenodd" clip-rule="evenodd" d="M295 23.5H296C296.552 23.5 297 23.9477 297 24.5V27C297 27.5523 296.552 28 296 28H295C294.448 28 294 27.5523 294 27V24.5C294 23.9477 294.448 23.5 295 23.5Z" fill="black"/>
<path fill-rule="evenodd" clip-rule="evenodd" d="M308.5 18H309.5C310.052 18 310.5 18.4477 310.5 19V27C310.5 27.5523 310.052 28 309.5 28H308.5C307.948 28 307.5 27.5523 307.5 27V19C307.5 18.4477 307.948 18 308.5 18Z" fill="black" fill-opacity="0.18"/>
<path fill-rule="evenodd" clip-rule="evenodd" d="M304 20H305C305.552 20 306 20.4477 306 21V27C306 27.5523 305.552 28 305 28H304C303.448 28 303 27.5523 303 27V21C303 20.4477 303.448 20 304 20Z" fill="black"/>
<path fill-rule="evenodd" clip-rule="evenodd" d="M299.5 22H300.5C301.052 22 301.5 22.4477 301.5 23V27C301.5 27.5523 301.052 28 300.5 28H299.5C298.948 28 298.5 27.5523 298.5 27V23C298.5 22.4477 298.948 22 299.5 22Z" fill="black"/>
<path fill-rule="evenodd" clip-rule="evenodd" d="M295 23.5H296C296.552 23.5 297 23.9477 297 24.5V27C297 27.5523 296.552 28 296 28H295C294.448 28 294 27.5523 294 27V24.5C294 23.9477 294.448 23.5 295 23.5Z" fill="black"/>
<path d="M324.133 24.9396C324.772 24.9396 325.394 25.1076 325.941 25.428L326.163 25.5579C326.331 25.6563 326.361 25.8866 326.223 26.0242L324.329 27.913C324.212 28.029 324.024 28.029 323.907 27.913L322.026 26.0363C321.888 25.8994 321.917 25.6702 322.084 25.5711L322.303 25.4406C322.855 25.1121 323.485 24.9396 324.133 24.9396Z" fill="black"/>
<path d="M324.133 21.4698C325.724 21.4698 327.251 21.9976 328.495 22.9749L328.671 23.113C328.811 23.2232 328.824 23.4306 328.697 23.5565L327.567 24.6841C327.462 24.7884 327.297 24.8004 327.178 24.7123L327.04 24.6098C326.2 23.9852 325.186 23.6502 324.133 23.6502C323.073 23.6502 322.053 23.9894 321.21 24.6211L321.072 24.7245C320.953 24.8134 320.787 24.8017 320.682 24.6971L319.552 23.5699C319.426 23.4443 319.438 23.2373 319.578 23.127L319.753 22.9888C321 22.0027 322.534 21.4698 324.133 21.4698Z" fill="black"/>
<path d="M324.133 18C326.657 18 329.072 18.8906 330.983 20.5229L331.146 20.6623C331.278 20.7749 331.285 20.9756 331.163 21.098L330.036 22.2219C329.926 22.3308 329.752 22.3385 329.634 22.2395L329.494 22.1228C327.989 20.8647 326.104 20.1804 324.133 20.1804C322.155 20.1804 320.263 20.8694 318.756 22.1354L318.617 22.2527C318.498 22.3521 318.324 22.3447 318.214 22.2356L317.087 21.1118C316.965 20.9895 316.972 20.7892 317.104 20.6765L317.266 20.5371C319.18 18.8959 321.601 18 324.133 18Z" fill="black"/>
<path d="M360 21C360.552 21 361 21.4477 361 22V24C361 24.5523 360.552 25 360 25V21Z" fill="black" fill-opacity="0.6"/>
<path fill-rule="evenodd" clip-rule="evenodd" d="M339 17H356C357.657 17 359 18.3431 359 20V26C359 27.6569 357.657 29 356 29H339C337.343 29 336 27.6569 336 26V20C336 18.3431 337.343 17 339 17ZM339 18C337.895 18 337 18.8954 337 20V26C337 27.1046 337.895 28 339 28H356C357.105 28 358 27.1046 358 26V20C358 18.8954 357.105 18 356 18H339Z" fill="black" fill-opacity="0.6"/>
<rect x="338" y="19" width="19" height="8" rx="1" fill="black"/>
<path d="M37.8672 28.0889C40.5552 28.0889 42.1519 25.9868 42.1519 22.4272C42.1519 21.0869 41.8955 19.959 41.4048 19.0874C40.6943 17.7324 39.4712 17 37.9258 17C35.626 17 34 18.5454 34 20.7134C34 22.7495 35.4648 24.229 37.479 24.229C38.7168 24.229 39.7202 23.6504 40.2183 22.647H40.2402C40.2402 22.647 40.2695 22.647 40.2769 22.647C40.2915 22.647 40.3428 22.647 40.3428 22.647C40.3428 25.064 39.4272 26.5068 37.8818 26.5068C36.9736 26.5068 36.2705 26.0088 36.0288 25.2104H34.1465C34.4614 26.9463 35.9336 28.0889 37.8672 28.0889ZM37.9331 22.7275C36.7173 22.7275 35.853 21.8633 35.853 20.6548C35.853 19.4756 36.7612 18.5747 37.9404 18.5747C39.1196 18.5747 40.0278 19.4902 40.0278 20.6841C40.0278 21.8633 39.1416 22.7275 37.9331 22.7275Z" fill="black"/>
<path d="M45.243 27.9863C45.9388 27.9863 46.4148 27.4883 46.4148 26.8291C46.4148 26.1626 45.9388 25.6719 45.243 25.6719C44.5545 25.6719 44.0711 26.1626 44.0711 26.8291C44.0711 27.4883 44.5545 27.9863 45.243 27.9863ZM45.243 22.4932C45.9388 22.4932 46.4148 22.0024 46.4148 21.3433C46.4148 20.6768 45.9388 20.186 45.243 20.186C44.5545 20.186 44.0711 20.6768 44.0711 21.3433C44.0711 22.0024 44.5545 22.4932 45.243 22.4932Z" fill="black"/>
<path d="M53.2706 27.8325H55.0797V25.8623H56.5079V24.2656H55.0797V17.2637H52.4137C50.546 20.0762 49.0592 22.4272 48.107 24.1777V25.8623H53.2706V27.8325ZM49.8575 24.1997C51.088 22.0317 52.1866 20.2959 53.1974 18.8018H53.2999V24.3096H49.8575V24.1997Z" fill="black"/>
<path d="M60.5365 27.8325H62.4262V17.2637H60.5438L57.7826 19.1973V21.0137L60.412 19.168H60.5365V27.8325Z" fill="black"/>
<rect x="121" y="801.688" width="134" height="5" rx="2.5" fill="black"/>
<path d="M244.18 80.6238C243.328 80.6238 242.59 80.5158 241.966 80.2998C241.354 80.0718 240.88 79.7118 240.544 79.2198C240.208 78.7158 240.016 78.0438 239.968 77.2038L239.644 69.9498H242.182L242.488 76.3218C242.512 76.8138 242.59 77.1918 242.722 77.4558C242.866 77.7078 243.07 77.8818 243.334 77.9778C243.598 78.0618 243.94 78.1038 244.36 78.1038C244.816 78.1038 245.14 78.2238 245.332 78.4638C245.524 78.6918 245.62 78.9798 245.62 79.3278C245.62 79.6998 245.494 80.0118 245.242 80.2638C245.002 80.5038 244.648 80.6238 244.18 80.6238ZM240.886 78.9498C240.082 79.1298 239.308 79.2138 238.564 79.2018C237.82 79.1778 237.154 79.0458 236.566 78.8058C235.978 78.5538 235.51 78.1938 235.162 77.7258C234.826 77.2578 234.658 76.6638 234.658 75.9438C234.658 75.3078 234.796 74.7318 235.072 74.2158C235.36 73.6878 235.756 73.2258 236.26 72.8298C236.776 72.4338 237.376 72.0978 238.06 71.8218C238.744 71.5458 239.488 71.3358 240.292 71.1918L240.544 73.7478C240.028 73.7718 239.56 73.8438 239.14 73.9638C238.732 74.0718 238.378 74.2158 238.078 74.3958C237.79 74.5758 237.568 74.7798 237.412 75.0078C237.256 75.2238 237.178 75.4578 237.178 75.7098C237.178 75.9138 237.25 76.0818 237.394 76.2138C237.538 76.3458 237.73 76.4538 237.97 76.5378C238.21 76.6098 238.486 76.6518 238.798 76.6638C239.11 76.6758 239.428 76.6578 239.752 76.6098C240.088 76.5618 240.418 76.4838 240.742 76.3758L240.886 78.9498ZM240.94 68.0958C240.592 68.0958 240.292 67.9758 240.04 67.7358C239.8 67.4838 239.68 67.1898 239.68 66.8538C239.68 66.5058 239.8 66.2058 240.04 65.9538C240.292 65.7018 240.592 65.5758 240.94 65.5758C241.276 65.5758 241.564 65.7018 241.804 65.9538C242.044 66.2058 242.164 66.5058 242.164 66.8538C242.164 67.1898 242.044 67.4838 241.804 67.7358C241.564 67.9758 241.276 68.0958 240.94 68.0958ZM237.826 68.0778C237.478 68.0778 237.178 67.9578 236.926 67.7178C236.686 67.4658 236.566 67.1718 236.566 66.8358C236.566 66.4878 236.686 66.1878 236.926 65.9358C237.178 65.6838 237.478 65.5578 237.826 65.5578C238.162 65.5578 238.45 65.6838 238.69 65.9358C238.93 66.1878 239.05 66.4878 239.05 66.8358C239.05 67.1718 238.93 67.4658 238.69 67.7178C238.45 67.9578 238.162 68.0778 237.826 68.0778ZM243.874 80.6238L244.054 78.1038C244.618 78.1038 245.05 78.0978 245.35 78.0858C245.662 78.0738 245.896 78.0618 246.052 78.0498C246.208 78.0258 246.34 78.0078 246.448 77.9958C246.328 77.8758 246.172 77.7018 245.98 77.4738C245.788 77.2458 245.614 76.9518 245.458 76.5918C245.314 76.2318 245.242 75.7998 245.242 75.2958C245.242 74.5638 245.428 73.9218 245.8 73.3698C246.184 72.8178 246.7 72.3858 247.348 72.0738C247.996 71.7618 248.722 71.6058 249.526 71.6058C249.91 71.6058 250.264 71.6298 250.588 71.6778C250.924 71.7258 251.26 71.7978 251.596 71.8938L251.2 74.2878C250.96 74.2278 250.708 74.1798 250.444 74.1438C250.18 74.1078 249.946 74.0898 249.742 74.0898C249.346 74.0898 248.998 74.1558 248.698 74.2878C248.41 74.4078 248.182 74.5818 248.014 74.8098C247.858 75.0258 247.78 75.2898 247.78 75.6018C247.78 75.8058 247.816 75.9978 247.888 76.1778C247.972 76.3578 248.074 76.5198 248.194 76.6638C248.314 76.8078 248.446 76.9338 248.59 77.0418C248.734 77.1498 248.872 77.2398 249.004 77.3118C249.148 77.3718 249.268 77.4138 249.364 77.4378C249.664 77.3538 249.922 77.2818 250.138 77.2218C250.366 77.1498 250.582 77.0838 250.786 77.0238C251.002 76.9518 251.236 76.8618 251.488 76.7538C251.74 76.6458 252.052 76.5138 252.424 76.3578L253.234 78.7338C252.226 79.2258 251.242 79.6098 250.282 79.8858C249.322 80.1618 248.326 80.3538 247.294 80.4618C246.262 80.5698 245.122 80.6238 243.874 80.6238ZM254.62 84.6738L254.098 82.1538C254.95 82.0458 255.694 81.9138 256.33 81.7578C256.966 81.6138 257.5 81.4098 257.932 81.1458C258.364 80.8818 258.688 80.5218 258.904 80.0658C259.12 79.5978 259.228 78.9978 259.228 78.2658C259.228 77.5578 259.12 76.9938 258.904 76.5738C258.688 76.1538 258.4 75.9438 258.04 75.9438C257.788 75.9438 257.578 76.0338 257.41 76.2138C257.242 76.3818 257.116 76.5858 257.032 76.8258C256.96 77.0538 256.924 77.2578 256.924 77.4378C256.924 77.5458 256.954 77.6598 257.014 77.7798C257.074 77.8998 257.206 78.0018 257.41 78.0858C257.614 78.1698 257.932 78.2178 258.364 78.2298C258.808 78.2418 259.408 78.1998 260.164 78.1038H263.188C263.644 78.1038 263.968 78.2238 264.16 78.4638C264.364 78.6918 264.466 78.9798 264.466 79.3278C264.466 79.6998 264.34 80.0118 264.088 80.2638C263.836 80.5038 263.476 80.6238 263.008 80.6238H258.058C257.302 80.6238 256.654 80.5338 256.114 80.3538C255.574 80.1738 255.16 79.8858 254.872 79.4898C254.584 79.0818 254.44 78.5418 254.44 77.8698C254.44 77.3298 254.53 76.7898 254.71 76.2498C254.902 75.7098 255.166 75.2178 255.502 74.7738C255.838 74.3178 256.228 73.9578 256.672 73.6938C257.128 73.4178 257.62 73.2798 258.148 73.2798C258.868 73.2798 259.498 73.5018 260.038 73.9458C260.578 74.3898 260.998 74.9778 261.298 75.7098C261.61 76.4418 261.766 77.2398 261.766 78.1038C261.766 79.4598 261.478 80.6118 260.902 81.5598C260.326 82.5078 259.504 83.2398 258.436 83.7558C257.368 84.2838 256.096 84.5898 254.62 84.6738ZM262.733 80.6238L262.913 78.1038C263.369 78.1038 263.729 78.0618 263.993 77.9778C264.269 77.8938 264.485 77.7258 264.641 77.4738C264.809 77.2098 264.947 76.8258 265.055 76.3218C265.175 75.8178 265.295 75.1458 265.415 74.3058L267.773 74.7018C267.749 74.8818 267.713 75.0918 267.665 75.3318C267.629 75.5718 267.593 75.8178 267.557 76.0698C267.533 76.3098 267.521 76.5378 267.521 76.7538C267.521 77.0418 267.581 77.2878 267.701 77.4918C267.833 77.6838 268.061 77.8338 268.385 77.9418C268.721 78.0498 269.201 78.1038 269.825 78.1038C270.281 78.1038 270.605 78.2238 270.797 78.4638C270.989 78.6918 271.085 78.9798 271.085 79.3278C271.085 79.6998 270.959 80.0118 270.707 80.2638C270.467 80.5038 270.113 80.6238 269.645 80.6238C268.817 80.6238 268.145 80.5458 267.629 80.3898C267.113 80.2338 266.729 79.9698 266.477 79.5978C266.225 79.2258 266.063 78.7158 265.991 78.0678H266.855C266.639 78.6438 266.387 79.1058 266.099 79.4538C265.811 79.7898 265.487 80.0418 265.127 80.2098C264.767 80.3778 264.383 80.4858 263.975 80.5338C263.579 80.5938 263.165 80.6238 262.733 80.6238ZM266.405 72.4698C266.033 72.4698 265.715 72.3438 265.451 72.0918C265.199 71.8398 265.073 71.5278 265.073 71.1558C265.073 70.7838 265.199 70.4658 265.451 70.2018C265.715 69.9378 266.033 69.8058 266.405 69.8058C266.765 69.8058 267.071 69.9378 267.323 70.2018C267.587 70.4658 267.719 70.7838 267.719 71.1558C267.719 71.5278 267.587 71.8398 267.323 72.0918C267.071 72.3438 266.765 72.4698 266.405 72.4698ZM269.342 80.6238L269.522 78.1038C269.954 78.1038 270.326 78.0618 270.638 77.9778C270.95 77.8938 271.214 77.7258 271.43 77.4738C271.646 77.2098 271.826 76.8258 271.97 76.3218C272.126 75.8178 272.264 75.1458 272.384 74.3058L274.742 74.7018C274.718 74.8818 274.682 75.0918 274.634 75.3318C274.598 75.5718 274.562 75.8178 274.526 76.0698C274.502 76.3098 274.49 76.5378 274.49 76.7538C274.49 76.9698 274.532 77.1618 274.616 77.3298C274.7 77.4978 274.832 77.6418 275.012 77.7618C275.204 77.8698 275.45 77.9538 275.75 78.0138C276.062 78.0738 276.44 78.1038 276.884 78.1038C277.34 78.1038 277.664 78.2238 277.856 78.4638C278.048 78.6918 278.144 78.9798 278.144 79.3278C278.144 79.6998 278.018 80.0118 277.766 80.2638C277.526 80.5038 277.172 80.6238 276.704 80.6238C276.164 80.6238 275.672 80.5818 275.228 80.4978C274.796 80.4138 274.418 80.2758 274.094 80.0838C273.782 79.8798 273.524 79.6158 273.32 79.2918C273.128 78.9558 273.008 78.5478 272.96 78.0678H273.824C273.608 78.6438 273.332 79.1058 272.996 79.4538C272.672 79.7898 272.306 80.0418 271.898 80.2098C271.49 80.3778 271.064 80.4858 270.62 80.5338C270.188 80.5938 269.762 80.6238 269.342 80.6238ZM275.12 72.6858C274.772 72.6858 274.472 72.5658 274.22 72.3258C273.98 72.0738 273.86 71.7798 273.86 71.4438C273.86 71.0958 273.98 70.7958 274.22 70.5438C274.472 70.2918 274.772 70.1658 275.12 70.1658C275.456 70.1658 275.744 70.2918 275.984 70.5438C276.224 70.7958 276.344 71.0958 276.344 71.4438C276.344 71.7798 276.224 72.0738 275.984 72.3258C275.744 72.5658 275.456 72.6858 275.12 72.6858ZM272.006 72.6678C271.658 72.6678 271.358 72.5478 271.106 72.3078C270.866 72.0558 270.746 71.7618 270.746 71.4258C270.746 71.0778 270.866 70.7778 271.106 70.5258C271.358 70.2738 271.658 70.1478 272.006 70.1478C272.342 70.1478 272.63 70.2738 272.87 70.5258C273.11 70.7778 273.23 71.0778 273.23 71.4258C273.23 71.7618 273.11 72.0558 272.87 72.3078C272.63 72.5478 272.342 72.6678 272.006 72.6678ZM276.407 80.6238L276.587 78.1038C276.863 78.1038 277.097 78.0378 277.289 77.9058C277.493 77.7618 277.703 77.5278 277.919 77.2038C278.135 76.8678 278.387 76.4178 278.675 75.8538C279.035 75.1338 279.407 74.5698 279.791 74.1618C280.187 73.7538 280.589 73.4658 280.997 73.2978C281.417 73.1178 281.837 73.0278 282.257 73.0278C282.785 73.0278 283.277 73.1418 283.733 73.3698C284.189 73.5978 284.585 73.9098 284.921 74.3058C285.257 74.6898 285.515 75.1338 285.695 75.6378C285.887 76.1298 285.983 76.6398 285.983 77.1678C285.983 77.8038 285.845 78.3798 285.569 78.8958C285.305 79.3998 284.933 79.8018 284.453 80.1018C283.985 80.3898 283.445 80.5338 282.833 80.5338C282.317 80.5338 281.717 80.4438 281.033 80.2638C280.349 80.0838 279.629 79.7058 278.873 79.1298L279.791 76.9518C280.331 77.3238 280.835 77.5938 281.303 77.7618C281.783 77.9298 282.179 78.0138 282.491 78.0138C282.731 78.0138 282.929 77.9898 283.085 77.9418C283.241 77.8938 283.355 77.8158 283.427 77.7078C283.499 77.5998 283.535 77.4558 283.535 77.2758C283.535 77.0238 283.475 76.7658 283.355 76.5018C283.235 76.2378 283.073 76.0158 282.869 75.8358C282.677 75.6438 282.449 75.5478 282.185 75.5478C281.933 75.5478 281.717 75.6438 281.537 75.8358C281.369 76.0158 281.201 76.2798 281.033 76.6278C280.877 76.9638 280.685 77.3598 280.457 77.8158C280.181 78.3678 279.911 78.8298 279.647 79.2018C279.383 79.5618 279.101 79.8498 278.801 80.0658C278.513 80.2698 278.171 80.4138 277.775 80.4978C277.391 80.5818 276.935 80.6238 276.407 80.6238ZM290.86 84.6738L289.942 82.3698C290.974 82.0098 291.808 81.6138 292.444 81.1818C293.092 80.7498 293.566 80.2878 293.866 79.7958C294.178 79.3038 294.334 78.7938 294.334 78.2658C294.334 77.9298 294.286 77.5818 294.19 77.2218C294.094 76.8498 293.956 76.4598 293.776 76.0518C293.608 75.6438 293.404 75.2178 293.164 74.7738L295.522 73.6398C295.942 74.4438 296.266 75.2118 296.494 75.9438C296.734 76.6758 296.854 77.3598 296.854 77.9958C296.854 78.5838 296.776 79.1478 296.62 79.6878C296.476 80.2278 296.248 80.7318 295.936 81.1998C295.636 81.6798 295.246 82.1298 294.766 82.5498C294.286 82.9698 293.722 83.3538 293.074 83.7018C292.426 84.0618 291.688 84.3858 290.86 84.6738ZM303.344 80.6238C302.228 80.6238 301.364 80.5098 300.752 80.2818C300.152 80.0538 299.732 79.6998 299.492 79.2198C299.252 78.7278 299.114 78.1098 299.078 77.3658L298.7 67.3578H301.22L301.598 76.1598C301.622 76.7118 301.682 77.1258 301.778 77.4018C301.874 77.6778 302.054 77.8638 302.318 77.9598C302.594 78.0558 302.996 78.1038 303.524 78.1038C303.98 78.1038 304.304 78.2238 304.496 78.4638C304.7 78.6918 304.802 78.9798 304.802 79.3278C304.802 79.6998 304.676 80.0118 304.424 80.2638C304.172 80.5038 303.812 80.6238 303.344 80.6238ZM303.068 80.6238L303.248 78.1038H305.822C306.074 78.1038 306.296 78.0918 306.488 78.0678C306.68 78.0318 306.836 77.9778 306.956 77.9058C307.088 77.8338 307.184 77.7438 307.244 77.6358C307.304 77.5278 307.334 77.4018 307.334 77.2578C307.334 77.1138 307.256 76.8858 307.1 76.5738C306.956 76.2498 306.638 75.8598 306.146 75.4038C305.882 75.1638 305.594 74.9118 305.282 74.6478C304.982 74.3718 304.694 74.1138 304.418 73.8738C304.142 73.6218 303.914 73.3998 303.734 73.2078C303.554 73.0158 303.464 72.8778 303.464 72.7938C303.464 72.6138 303.476 72.4158 303.5 72.1998C303.524 71.9838 303.56 71.7858 303.608 71.6058C303.668 71.4258 303.746 71.2938 303.842 71.2098C304.046 71.0178 304.346 70.7958 304.742 70.5438C305.15 70.2798 305.636 69.9978 306.2 69.6978C306.764 69.3858 307.394 69.0618 308.09 68.7258C308.798 68.3778 309.554 68.0298 310.358 67.6818L311.384 69.8778C310.724 70.1658 310.1 70.4478 309.512 70.7238C308.924 70.9878 308.372 71.2518 307.856 71.5158C307.352 71.7678 306.884 72.0198 306.452 72.2718C306.032 72.5118 305.66 72.7518 305.336 72.9918L305.57 71.6598C306.59 72.4398 307.4 73.1418 308 73.7658C308.612 74.3898 309.068 74.9478 309.368 75.4398C309.668 75.9198 309.866 76.3518 309.962 76.7358C310.058 77.1078 310.106 77.4378 310.106 77.7258C310.106 78.0138 310.034 78.3258 309.89 78.6618C309.758 78.9858 309.512 79.2978 309.152 79.5978C308.804 79.8978 308.312 80.1438 307.676 80.3358C307.04 80.5278 306.224 80.6238 305.228 80.6238H303.068ZM311.572 79.8138L312.454 77.5278C312.898 77.7198 313.324 77.8638 313.732 77.9598C314.14 78.0558 314.548 78.1038 314.956 78.1038C315.376 78.1038 315.724 78.0678 316 77.9958C316.288 77.9118 316.504 77.7918 316.648 77.6358C316.792 77.4798 316.864 77.2938 316.864 77.0778C316.864 76.8738 316.798 76.5918 316.666 76.2318C316.546 75.8718 316.324 75.4038 316 74.8278C315.676 74.2398 315.202 73.5138 314.578 72.6498L316.72 71.2278C317.296 72.0438 317.794 72.8418 318.214 73.6218C318.634 74.3898 318.958 75.1098 319.186 75.7818C319.426 76.4418 319.546 77.0238 319.546 77.5278C319.546 78.1518 319.378 78.6978 319.042 79.1658C318.718 79.6218 318.232 79.9818 317.584 80.2458C316.948 80.5098 316.162 80.6418 315.226 80.6418C314.878 80.6418 314.488 80.6118 314.056 80.5518C313.624 80.4918 313.186 80.4018 312.742 80.2818C312.31 80.1618 311.92 80.0058 311.572 79.8138ZM314.974 69.8598C314.602 69.8598 314.284 69.7338 314.02 69.4818C313.768 69.2298 313.642 68.9178 313.642 68.5458C313.642 68.1738 313.768 67.8558 314.02 67.5918C314.284 67.3278 314.602 67.1958 314.974 67.1958C315.334 67.1958 315.64 67.3278 315.892 67.5918C316.156 67.8558 316.288 68.1738 316.288 68.5458C316.288 68.9178 316.156 69.2298 315.892 69.4818C315.64 69.7338 315.334 69.8598 314.974 69.8598ZM321.345 80.5338L321.003 68.6178H323.523L323.865 80.5338H321.345ZM320.355 67.4658L320.049 66.2058C320.469 66.1338 320.781 66.0738 320.985 66.0258C321.201 65.9778 321.429 65.9238 321.669 65.8638L321.489 66.3138C321.177 66.2058 320.877 65.9958 320.589 65.6838C320.313 65.3598 320.175 64.9938 320.175 64.5858C320.175 64.1538 320.271 63.8058 320.463 63.5418C320.655 63.2778 320.901 63.0858 321.201 62.9658C321.501 62.8458 321.813 62.7858 322.137 62.7858C322.317 62.7858 322.485 62.7978 322.641 62.8218C322.809 62.8458 322.959 62.8818 323.091 62.9298L322.947 64.2258C322.827 64.2018 322.707 64.1778 322.587 64.1538C322.467 64.1298 322.335 64.1178 322.191 64.1178C322.035 64.1178 321.891 64.1718 321.759 64.2798C321.639 64.3758 321.579 64.4958 321.579 64.6398C321.579 64.8438 321.651 65.0238 321.795 65.1798C321.939 65.3358 322.107 65.4618 322.299 65.5578C322.503 65.6418 322.671 65.6898 322.803 65.7018L321.813 65.8098C322.137 65.7258 322.443 65.6418 322.731 65.5578C323.019 65.4618 323.289 65.3658 323.541 65.2698L323.901 66.4758C323.601 66.5838 323.247 66.7038 322.839 66.8358C322.443 66.9558 322.029 67.0698 321.597 67.1778C321.177 67.2858 320.763 67.3818 320.355 67.4658Z" fill="#01B7F1"/>
<path fill-rule="evenodd" clip-rule="evenodd" d="M353.53 73.5038C353.671 73.6444 353.749 73.835 353.749 74.0338C353.749 74.2325 353.671 74.4231 353.53 74.5638L347.53 80.5638C347.461 80.6374 347.379 80.6965 347.287 80.7375C347.195 80.7785 347.095 80.8006 346.995 80.8023C346.894 80.8041 346.794 80.7856 346.7 80.7479C346.607 80.7102 346.522 80.654 346.451 80.5828C346.38 80.5116 346.324 80.4267 346.286 80.3334C346.248 80.24 346.23 80.1399 346.231 80.0392C346.233 79.9385 346.255 79.8392 346.296 79.7472C346.337 79.6552 346.396 79.5724 346.47 79.5038L351.19 74.7838L337 74.7838C336.801 74.7838 336.61 74.7047 336.47 74.5641C336.329 74.4234 336.25 74.2327 336.25 74.0338C336.25 73.8348 336.329 73.6441 336.47 73.5034C336.61 73.3628 336.801 73.2838 337 73.2838L351.19 73.2838L346.47 68.5638C346.396 68.4951 346.337 68.4123 346.296 68.3203C346.255 68.2283 346.233 68.129 346.231 68.0283C346.23 67.9276 346.248 67.8275 346.286 67.7342C346.324 67.6408 346.38 67.5559 346.451 67.4847C346.522 67.4135 346.607 67.3574 346.7 67.3196C346.794 67.2819 346.894 67.2634 346.995 67.2652C347.095 67.2669 347.195 67.289 347.287 67.33C347.379 67.371 347.461 67.4301 347.53 67.5038L353.53 73.5038Z" fill="#01B7F1"/>
</g>
<defs>
<clipPath id="clip0_76_157">
<path d="M0 30C0 13.4315 13.4315 0 30 0H345C361.569 0 375 13.4315 375 30V782C375 798.569 361.569 812 345 812H30C13.4315 812 0 798.569 0 782V30Z" fill="white"/>
</clipPath>
</defs>
</svg>
